<?xml version="1.0" encoding="utf-8"?>
<!-- Generator: Adobe Illustrator 16.0.4, SVG Export Plug-In . SVG Version: 6.00 Build 0)  -->
<!DOCTYPE svg PUBLIC "-//W3C//DTD SVG 1.1//EN" "http://www.w3.org/Graphics/SVG/1.1/DTD/svg11.dtd">
<svg version="1.1" id="Layer_1" xmlns="http://www.w3.org/2000/svg" xmlns:xlink="http://www.w3.org/1999/xlink" x="0px" y="0px"
	 width="32px" height="32px" viewBox="0 0 32 32" enable-background="new 0 0 32 32" xml:space="preserve">
<path fill-rule="evenodd" clip-rule="evenodd" fill="#000000" d="M16,0.5C7.165,0.5,0,7.664,0,16.501
	c0,7.069,4.584,13.066,10.943,15.183c0.8,0.146,1.092-0.347,1.092-0.771c0-0.38-0.014-1.387-0.021-2.722
	c-4.451,0.967-5.39-2.146-5.39-2.146c-0.728-1.847-1.776-2.34-1.776-2.34c-1.453-0.992,0.11-0.973,0.11-0.973
	c1.605,0.113,2.451,1.649,2.451,1.649c1.427,2.444,3.745,1.738,4.657,1.33c0.145-1.034,0.559-1.74,1.016-2.14
	c-3.553-0.404-7.288-1.776-7.288-7.908c0-1.747,0.624-3.175,1.647-4.293c-0.165-0.405-0.714-2.032,0.157-4.235
	c0,0,1.343-0.43,4.4,1.641c1.276-0.355,2.645-0.533,4.006-0.539c1.358,0.006,2.727,0.184,4.006,0.539
	c3.054-2.071,4.396-1.641,4.396-1.641c0.872,2.203,0.324,3.83,0.159,4.235c1.024,1.118,1.644,2.547,1.644,4.293
	c0,6.147-3.741,7.5-7.306,7.895c0.576,0.495,1.086,1.472,1.086,2.965c0,2.139-0.019,3.863-0.019,4.389
	c0,0.428,0.287,0.925,1.101,0.77C27.421,29.562,32,23.568,32,16.501C32,7.664,24.837,0.5,16,0.5z"/>
</svg>
