<?xml version="1.0" encoding="utf-8"?>
<!-- Generator: Adobe Illustrator 16.0.4, SVG Export Plug-In . SVG Version: 6.00 Build 0)  -->
<!DOCTYPE svg PUBLIC "-//W3C//DTD SVG 1.1//EN" "http://www.w3.org/Graphics/SVG/1.1/DTD/svg11.dtd">
<svg version="1.1" id="Layer_1" xmlns="http://www.w3.org/2000/svg" xmlns:xlink="http://www.w3.org/1999/xlink" x="0px" y="0px"
	 width="32px" height="32px" viewBox="0 0 32 32" enable-background="new 0 0 32 32" xml:space="preserve">
<path d="M7.244,31.251v-20.58H0.403v20.58H7.244z M3.824,7.86c2.385,0,3.87-1.58,3.87-3.555C7.65,2.286,6.209,0.75,3.869,0.75
	C1.529,0.75,0,2.286,0,4.306C0,6.281,1.484,7.86,3.78,7.86H3.824L3.824,7.86z M11.03,31.251h6.84V19.759
	c0-0.615,0.045-1.229,0.226-1.669c0.494-1.229,1.62-2.502,3.509-2.502c2.475,0,3.465,1.887,3.465,4.654V31.25h6.84V19.451
	c0-6.321-3.374-9.262-7.875-9.262c-3.69,0-5.31,2.063-6.21,3.467h0.045v-2.984h-6.84C11.119,12.603,11.03,31.251,11.03,31.251
	L11.03,31.251z"/>
</svg>
