<?xml version="1.0" encoding="utf-8"?>
<!-- Generator: Adobe Illustrator 16.0.4, SVG Export Plug-In . SVG Version: 6.00 Build 0)  -->
<!DOCTYPE svg PUBLIC "-//W3C//DTD SVG 1.1//EN" "http://www.w3.org/Graphics/SVG/1.1/DTD/svg11.dtd">
<svg version="1.1"
	 id="svg2" xmlns:inkscape="http://www.inkscape.org/namespaces/inkscape" xmlns:svg="http://www.w3.org/2000/svg" xmlns:sodipodi="http://sodipodi.sourceforge.net/DTD/sodipodi-0.dtd" xmlns:rdf="http://www.w3.org/1999/02/22-rdf-syntax-ns#" xmlns:cc="http://creativecommons.org/ns#" xmlns:dc="http://purl.org/dc/elements/1.1/" sodipodi:docname="Twitter_bird_logo_2012.svg" inkscape:version="0.48.4 r9939"
	 xmlns="http://www.w3.org/2000/svg" xmlns:xlink="http://www.w3.org/1999/xlink" x="0px" y="0px" width="32px" height="26.006px"
	 viewBox="0 0 32 26.006" enable-background="new 0 0 32 26.006" xml:space="preserve">
<sodipodi:namedview  inkscape:zoom="3.7200571" fit-margin-left="0" fit-margin-top="0" inkscape:cy="50.181142" inkscape:cx="101.29413" borderopacity="1.0" showgrid="false" pagecolor="#ffffff" bordercolor="#666666" id="base" inkscape:window-y="-8" inkscape:window-maximized="1" inkscape:window-width="1280" inkscape:window-height="962" inkscape:pageshadow="2" inkscape:document-units="px" fit-margin-bottom="0" fit-margin-right="0" inkscape:window-x="-8" inkscape:pageopacity="0.0" inkscape:current-layer="layer1">
	</sodipodi:namedview>
<g id="layer1" transform="translate(-282.32053,-396.30734)" inkscape:label="Layer 1" inkscape:groupmode="layer">
	<path id="path5" inkscape:connector-curvature="0" d="M314.321,399.386c-1.177,0.522-2.443,0.875-3.771,1.033
		c1.355-0.812,2.397-2.099,2.887-3.632c-1.269,0.753-2.674,1.299-4.169,1.593c-1.197-1.276-2.904-2.073-4.792-2.073
		c-3.625,0-6.565,2.939-6.565,6.565c0,0.515,0.058,1.016,0.17,1.496c-5.456-0.273-10.294-2.887-13.532-6.859
		c-0.565,0.97-0.889,2.097-0.889,3.3c0,2.278,1.159,4.287,2.92,5.465c-1.076-0.034-2.088-0.33-2.973-0.821
		c-0.001,0.027-0.001,0.055-0.001,0.083c0,3.181,2.263,5.834,5.267,6.438c-0.551,0.15-1.131,0.23-1.729,0.23
		c-0.423,0-0.834-0.041-1.235-0.118c0.835,2.608,3.26,4.506,6.133,4.559c-2.247,1.761-5.078,2.811-8.154,2.811
		c-0.53,0-1.053-0.031-1.566-0.091c2.905,1.863,6.356,2.95,10.064,2.95c12.076,0,18.68-10.004,18.68-18.68
		c0-0.285-0.007-0.568-0.02-0.85C312.328,401.858,313.441,400.702,314.321,399.386L314.321,399.386z"/>
</g>
</svg>
