<?xml version="1.0" encoding="UTF-8" standalone="no"?>
<svg width="720px" height="300px" viewBox="0 0 720 300" version="1.1" xmlns="http://www.w3.org/2000/svg" xmlns:xlink="http://www.w3.org/1999/xlink" xmlns:sketch="http://www.bohemiancoding.com/sketch/ns">
    <!-- Generator: Sketch 3.4.4 (17249) - http://www.bohemiancoding.com/sketch -->
    <title>tech-logos</title>
    <desc>Created with Sketch.</desc>
    <defs></defs>
    <g id="About" stroke="none" stroke-width="1" fill="none" fill-rule="evenodd" sketch:type="MSPage">
        <g id="tech-logos" sketch:type="MSArtboardGroup">
            <g id="node" sketch:type="MSLayerGroup" transform="translate(180.000000, 9.000000)" fill="#78B642">
                <circle id="Oval-51" fill-opacity="0.2" sketch:type="MSShapeGroup" cx="45" cy="45" r="45"></circle>
                <g id="Fill-7-+-Fill-8" transform="translate(26.000000, 23.000000)" sketch:type="MSShapeGroup">
                    <path d="M19.1328621,43.1592155 C18.5545862,43.1592155 17.9803448,43.0085948 17.4746897,42.7154224 L12.1935517,39.5913879 C11.4054828,39.1502845 11.7901034,38.9942845 12.0496552,38.9028362 C13.1026552,38.5383879 13.3151379,38.4536638 14.438069,37.8175603 C14.555069,37.7516638 14.7097241,37.7758707 14.8307586,37.8471466 L18.8867586,40.2557328 C19.0346897,40.3377672 19.2417931,40.3377672 19.3776207,40.2557328 L35.1927931,31.1270431 C35.3407241,31.042319 35.4348621,30.8742155 35.4348621,30.6993879 L35.4348621,12.4460431 C35.4348621,12.2685259 35.3407241,12.1004224 35.1901034,12.010319 L19.3803103,2.88969828 C19.2337241,2.80362931 19.040069,2.80362931 18.8921379,2.88969828 L3.08637931,12.0130086 C2.93306897,12.1004224 2.83624138,12.2725603 2.83624138,12.4460431 L2.83624138,30.6993879 C2.83624138,30.8742155 2.93306897,31.0382845 3.08503448,31.1216638 L7.41806897,33.6243879 C9.76882759,34.7997672 11.2091379,33.4159397 11.2091379,32.0253879 L11.2091379,14.0033534 C11.2091379,13.749181 11.4135517,13.5488017 11.6677241,13.5488017 L13.6742069,13.5488017 C13.9243448,13.5488017 14.1314483,13.749181 14.1314483,14.0033534 L14.1314483,32.0253879 C14.1314483,35.1628707 12.4235172,36.96225 9.44875862,36.96225 C8.53427586,36.96225 7.8147931,36.96225 5.80562069,35.9724569 L1.65817241,33.5840431 C0.633413793,32.992319 0,31.884181 0,30.6993879 L0,12.4460431 C0,11.26125 0.633413793,10.1531121 1.65817241,9.56407759 L17.4746897,0.42462931 C18.4752414,-0.141543103 19.8052759,-0.141543103 20.7977586,0.42462931 L36.612931,9.56407759 C37.6376897,10.1558017 38.2737931,11.26125 38.2737931,12.4460431 L38.2737931,30.6993879 C38.2737931,31.884181 37.6376897,32.9882845 36.612931,33.5840431 L20.7977586,42.7154224 C20.2921034,43.0085948 19.7192069,43.1592155 19.1328621,43.1592155" id="Fill-7"></path>
                    <path d="M24.0186207,30.5850776 C17.0967931,30.5850776 15.647069,27.40725 15.647069,24.7431466 C15.647069,24.4889741 15.8514828,24.28725 16.1043103,24.28725 L18.1497931,24.28725 C18.3784138,24.28725 18.5680345,24.451319 18.6043448,24.6745603 C18.9123103,26.7563534 19.8335172,27.8066638 24.0186207,27.8066638 C27.3497586,27.8066638 28.7685517,27.0535603 28.7685517,25.2851121 C28.7685517,24.2657328 28.3664483,23.5099397 23.1888621,23.0029397 C18.8612069,22.5752845 16.185,21.6191121 16.185,18.156181 C16.185,14.9649052 18.8746552,13.0619741 23.3838621,13.0619741 C28.4511724,13.0619741 30.957931,14.8210086 31.2753103,18.5945948 C31.2874138,18.7236983 31.2416897,18.8487672 31.1556207,18.9455948 C31.0682069,19.0370431 30.9471724,19.092181 30.8207586,19.092181 L28.7672069,19.092181 C28.5547241,19.092181 28.3664483,18.9402155 28.3234138,18.7344569 C27.8312069,16.5437328 26.6329655,15.8444224 23.3838621,15.8444224 C19.7461034,15.8444224 19.3238276,17.11125 19.3238276,18.0606983 C19.3238276,19.2118707 19.8227586,19.5467328 24.734069,20.1962845 C29.5942759,20.8391121 31.9033448,21.7482155 31.9033448,25.1640776 C31.9033448,28.6108707 29.0294483,30.5850776 24.0186207,30.5850776" id="Fill-8"></path>
                </g>
            </g>
            <g id="react" sketch:type="MSLayerGroup" transform="translate(505.000000, -1.000000)">
                <circle id="Oval-51" fill-opacity="0.15" fill="#00D8FF" sketch:type="MSShapeGroup" cx="67.5" cy="67.5" r="67.5"></circle>
                <g id="Layer_2" transform="translate(27.000000, 31.500000)" sketch:type="MSShapeGroup">
                    <ellipse id="Oval" fill="#00D8FF" cx="40.42935" cy="35.9442" rx="7.52505" ry="7.52505"></ellipse>
                    <path d="M40.42935,20.6442 C50.53275,20.6442 59.91855,22.09395 66.9954,24.53025 C75.522,27.4656 80.7645,31.9152 80.7645,35.9442 C80.7645,40.14285 75.20835,44.86965 66.05205,47.9034 C59.1294,50.19705 50.0202,51.3942 40.42935,51.3942 C30.59625,51.3942 21.28485,50.2704 14.28585,47.87805 C5.42895,44.85075 0.0942,40.0626 0.0942,35.9442 C0.0942,31.9479 5.0997,27.5328 13.50645,24.6018 C20.6097,22.12545 30.22725,20.6442 40.42935,20.6442 L40.42935,20.6442 Z" id="Shape" stroke="#00D8FF" stroke-width="2.4"></path>
                    <path d="M27.1104,28.3383 C32.15775,19.5861 38.10255,12.1797 43.7484,7.2663 C50.5509,1.3464 57.02445,-0.97215 60.51465,1.04055 C64.15185,3.138 65.47095,10.31265 63.5247,19.75995 C62.0532,26.90265 58.5396,35.39175 53.7483,43.7001 C48.83595,52.2183 43.2108,59.72295 37.64175,64.5909 C30.5946,70.7511 23.78175,72.98025 20.214,70.92285 C16.75215,68.92635 15.4281,62.3847 17.0889,53.6379 C18.49215,46.2474 22.0137,37.17615 27.1104,28.3383 L27.1104,28.3383 Z" id="Shape" stroke="#00D8FF" stroke-width="2.4"></path>
                    <path d="M27.12315,43.7223 C22.06125,34.9785 18.6135,26.12925 17.17635,18.78405 C15.44475,9.9342 16.66905,3.1677 20.15595,1.14915 C23.78955,-0.95445 30.6642,1.48575 37.87695,7.89015 C43.33035,12.73215 48.93015,20.0157 53.7354,28.3161 C58.662,36.82605 62.35455,45.44745 63.7908,52.7034 C65.60835,61.88535 64.13715,68.901 60.57285,70.9644 C57.1143,72.9666 50.7855,70.8468 44.037,65.03955 C38.33505,60.1329 32.2347,52.5516 27.12315,43.7223 L27.12315,43.7223 Z" id="Shape" stroke="#00D8FF" stroke-width="2.4"></path>
                </g>
            </g>
            <g id="js" sketch:type="MSLayerGroup" transform="translate(270.000000, 29.000000)">
                <circle id="Oval-51" fill="#FDDA23" sketch:type="MSShapeGroup" cx="100" cy="100" r="100"></circle>
                <g id="js-logo" transform="translate(47.777778, 44.444444)" sketch:type="MSShapeGroup">
                    <path d="M52.0463636,0.914077033 C68.5968385,0.916120987 85.1473134,0.943509976 101.697381,0.877694644 C103.52791,0.870336409 104.129946,1.24192732 103.948399,3.21802243 C101.65749,28.1673474 99.4394437,53.1236217 97.2201764,78.0798961 C96.4602035,86.6244431 95.7315739,95.1718516 95.022076,103.720895 C94.7501628,106.994493 94.7872049,106.97855 91.6003664,107.877481 C79.0703799,111.411478 66.5403935,114.946293 54.0218046,118.52076 C52.6663094,118.907885 51.4215332,118.910747 50.0623745,118.522804 C37.2185482,114.854724 24.3657666,111.216076 11.4991452,107.628527 C10.1273677,107.245899 9.55504749,106.668277 9.42804613,105.170059 C8.32940299,92.213432 7.12858887,79.2649809 5.96766621,66.3132595 C4.49046133,49.8353079 3.024654,33.35613 1.54785617,16.8777697 C1.13469471,12.2674261 0.772415197,7.65054193 0.23917232,3.05368849 C0.0413432836,1.3502569 0.434966079,0.865839709 2.19181818,0.872789154 C18.8098643,0.938604485 35.4279104,0.912033078 52.0463636,0.914077033" id="Fill-4" fill="#D6BB29"></path>
                    <path d="M52.3053731,60.2862511 C52.3053731,44.2788179 52.3367164,28.2713846 52.2626323,12.2643602 C52.2544912,10.4264364 52.7893623,9.99393564 54.5555767,10.0041554 C67.238616,10.0781466 79.9228765,10.0810081 92.6063229,10.0021115 C94.4323745,9.99066532 94.801981,10.6794779 94.6403799,12.2696745 C93.8136499,20.41238 92.9787788,28.5542679 92.2391588,36.7051493 C91.7376662,42.2340459 91.450692,47.7825645 90.9548982,53.3118699 C90.3573406,59.9808843 89.59981,66.6351823 88.9880054,73.3025615 C88.5060516,78.5612474 88.1409227,83.8305618 87.7220624,89.0949707 C87.448521,92.5365812 87.1615468,95.9769652 86.9022524,99.419802 C86.8147354,100.585265 86.2652103,101.272033 85.1221981,101.58435 C74.6335957,104.44793 64.1445862,107.309875 53.6718589,110.230686 C51.5962822,110.809533 52.333867,109.276976 52.3322388,108.512946 C52.2964179,93.3909541 52.3053731,78.2689619 52.3053731,63.1469697 L52.3053731,60.2862511" id="Fill-6" fill="#FEDA22"></path>
                    <path d="M18.5371777,72.9368163 C24.1606513,74.4616063 29.785346,75.9802644 35.4063772,77.513639 C37.9500678,78.2077659 37.9488467,78.2208472 37.9488467,75.5698384 C37.9496608,59.0154429 37.9830393,42.4602299 37.9036635,25.9058345 C37.8943012,23.9755239 38.4580733,23.426109 40.3032564,23.5638715 C42.3947083,23.7200296 44.5069199,23.6268253 46.6093623,23.5888078 C47.5545455,23.5716385 48.0145183,23.9097086 47.924152,24.8944858 C47.8932157,25.2321471 47.9204885,25.5751226 47.9204885,25.9160542 C47.9204885,47.5803357 47.894844,69.2446171 47.9640434,90.9084897 C47.9701493,92.8874464 47.492673,93.1388528 45.7012212,92.6200971 C37.0386703,90.1133915 28.3492537,87.6978462 19.651289,85.3174569 C18.2729986,84.9405517 17.6282225,84.416073 17.7145183,82.8442721 C17.8635007,80.1274479 17.7405699,77.396316 17.7682497,74.6717248 C17.7743555,74.0953297 17.5126187,73.4322709 18.1077341,72.960935 C18.5156038,76.4699959 18.3816825,79.9847799 18.3185889,83.2240388 C18.6360923,79.988459 18.0682497,76.4466948 18.5371777,72.9368163" id="Fill-8" fill="#EAEAEA"></path>
                    <path id="Fill-10" fill="#D2B82A" d="M51.8476798,10.5841479 L51.8476798,109.654617 C51.7801085,109.655026 51.7121303,109.655026 51.644559,109.655026 L51.644559,10.5011634 L51.8476798,10.5841479 Z"></path>
                    <path d="M18.5371777,72.9368163 C19.4945726,73.6477036 18.4989145,74.3532767 18.4862958,75.0568058 C18.4411126,77.664074 19.0317503,80.2635752 18.5554953,82.8794281 C18.4748982,83.3229662 18.7455902,83.8306844 18.5383989,84.3302269 C17.9872456,80.5673069 18.2037992,76.7541055 18.1077341,72.960935 C18.2335142,72.644122 18.3804613,72.7001264 18.5371777,72.9368163" id="Fill-12" fill="#EBECF0"></path>
                    <path d="M68.4667436,66.8205281 C64.6542605,67.2088794 60.8999864,67.9263074 57.1815332,68.8436341 C56.5961872,69.3133348 56.3417775,68.9339769 56.1586024,68.4283026 C55.8968657,67.7055603 55.9803121,66.9484796 55.979905,66.2036626 C55.9750204,52.8063591 55.9742062,39.4090557 55.9786839,26.0113434 C55.979498,23.3353983 55.9900814,23.3341719 58.6583311,23.3341719 C68.2746133,23.3333543 77.8908955,23.3807741 87.5063636,23.2912489 C89.2591452,23.2748972 89.7781411,23.8410726 89.5611805,25.4758273 C89.287232,27.5422652 89.3218318,29.6442679 88.884654,31.6939454 C88.8524966,31.7540377 88.8028358,31.8108596 88.7906242,31.874631 C88.0469335,35.8280476 88.0469335,35.8276388 83.8514111,35.8276388 C78.6276662,35.8276388 73.4035142,35.8656563 68.1805834,35.8022937 C66.8511398,35.7863509 66.4143691,36.1955506 66.4322795,37.5466044 C66.4994437,42.5869959 66.4994437,47.6298402 66.4339077,52.6706406 C66.4155902,54.0703405 66.8808548,54.4402963 68.221289,54.2612459 C73.5952374,53.5434091 78.9789552,52.8962931 84.3598236,52.2307816 C86.9975441,51.9045665 87.0476119,51.9160126 86.850597,54.4893512 C86.0857395,64.4679365 85.2695929,74.442434 84.52346,84.4226545 C84.4412347,85.5247547 83.9633514,85.9233258 82.9729851,86.1788201 C74.5709498,88.3499085 66.1750204,90.5471595 57.7917096,92.7897862 C56.6906242,93.0841157 56.3181682,92.8833993 56.3336364,91.7236596 C56.3759701,88.5902775 56.3906242,85.4548515 56.3271235,82.322287 C56.3035142,81.1543714 56.9067707,80.8436904 57.8637585,80.5857433 C61.4568385,79.6177265 65.0320081,78.5814416 68.6136906,77.5709106 C70.4222388,76.8522562 72.3280733,76.4847532 74.2172185,76.0833206 C75.4644369,75.8184241 76.1474763,75.3058003 76.3343148,73.9073267 C76.5712212,72.1352183 76.4539891,70.374556 76.5492402,68.6122585 C76.5883175,67.8874722 76.2927951,67.1169014 76.7837042,66.4399437 C76.7800407,66.1713681 76.7763772,65.9032013 76.7727137,65.6350345 C74.8477476,65.3987534 73.0290231,66.0990122 71.1744776,66.384757 C70.2838399,66.5221107 69.3301085,66.4607921 68.4667436,66.8205281" id="Fill-14" fill="#FEFEFE"></path>
                    <path d="M88.8845726,31.694068 C88.7762958,29.6472521 89.0189009,27.6212845 89.3054681,25.6055367 C89.5081818,24.1821268 89.224057,23.554224 87.5563501,23.5677141 C77.7414247,23.646202 67.9256852,23.6245361 58.1103528,23.583657 C56.8452239,23.5783427 56.3205292,23.8620436 56.3250068,25.2674666 C56.370597,39.2714158 56.3518725,53.2757737 56.3539077,67.2797228 C56.3539077,67.9427817 56.195156,68.7023151 57.1814518,68.8437568 C56.495156,69.6490748 56.1491588,69.3118223 55.9521438,68.4742098 C55.6700543,67.9664915 55.7828087,67.4113535 55.7828087,66.876655 C55.7767028,52.9626399 55.7767028,39.0482159 55.7832157,25.1342008 C55.7836228,24.6007287 55.6610991,24.0435467 55.9672049,23.5423691 C56.4923066,22.9066993 57.2184939,23.1319431 57.8681547,23.1311255 C67.8320624,23.118453 77.7959701,23.1605584 87.7594708,23.0849321 C89.414559,23.0722596 89.8724966,23.6057317 89.7910855,25.1840733 C89.677517,27.3886825 89.7572999,29.6022851 88.8845726,31.694068" id="Fill-16" fill="#FEDB27"></path>
                    <path id="Fill-18" fill="#FED915" d="M55.967327,23.5422465 C55.9624423,38.5199355 55.9575577,53.4972157 55.952673,68.4744959 C55.3034193,67.8633536 55.5814383,67.0678465 55.5806242,66.3561416 C55.5635278,52.7891899 55.5639349,39.2218294 55.5802171,25.6544689 C55.5810312,24.942764 55.3054545,24.1456218 55.967327,23.5422465"></path>
                    <path d="M67.3675712,36.2509008 L87.8493894,36.2509008 C87.8497965,36.5084391 87.8502035,36.7655686 87.8506106,37.0231068 L67.3736771,37.0231068 C67.1440977,36.7676125 67.1383989,36.5100743 67.3675712,36.2509008" id="Fill-20" fill="#FED917"></path>
                    <path d="M76.7837856,66.4398211 C76.7015604,69.01643 76.6201493,71.5934477 76.5362958,74.1700566 C76.508209,75.0317878 76.3502714,75.7479894 75.3053596,75.9765035 C73.0657395,76.466235 70.8432157,77.0344543 68.613365,77.570788 C70.2265265,76.3186615 72.2597693,76.3967405 74.0931479,75.8477344 C75.1954545,75.5174314 75.8459294,75.1764998 76.0286974,73.7612658 C76.2558345,72.0046913 76.2497286,70.2673301 76.3356174,68.5197491 C76.3706242,67.8104969 76.0596336,67.0059965 76.7837856,66.4398211" id="Fill-22" fill="#FEDB2D"></path>
                    <path id="Fill-24" fill="#FDD80D" d="M67.3675712,36.2509008 C67.3696065,36.5084391 67.3716418,36.7655686 67.3736771,37.0231068 L67.3736771,53.6715242 C66.9189959,53.6106143 66.9743555,53.085318 66.9739484,52.6192964 C66.9686567,47.457494 66.970692,42.2952828 66.9710991,37.1334803 C66.9715061,36.780285 67.0598372,36.4655161 67.3675712,36.2509008"></path>
                    <path id="Fill-26" fill="#FED914" d="M55.670095,92.604604 L55.670095,81.2684241 C55.7262687,81.2676065 55.7820353,81.2667889 55.838209,81.2663801 L55.838209,92.6021512 C55.7820353,92.6029688 55.7262687,92.6037864 55.670095,92.604604"></path>
                    <path d="M68.4667436,66.8205281 C70.9644369,65.9829155 73.5944233,65.8030476 76.152768,65.2650788 C76.4393351,65.2045777 76.6664722,65.3415227 76.7727137,65.6350345 C74.0136906,66.0977858 71.3039213,66.9108708 68.4667436,66.8205281" id="Fill-28" fill="#FEDB2D"></path>
                    <path id="Fill-30" fill="#EBEDF5" d="M38.5804342,77.796604 L38.5804342,24.3713153 L38.7827408,24.3713153 L38.7827408,77.8207227 C38.7155767,77.8125469 38.6480054,77.8047799 38.5804342,77.796604"></path>
                </g>
            </g>
            <g id="angular" sketch:type="MSLayerGroup" transform="translate(565.000000, 145.000000)">
                <circle id="Oval-51" fill-opacity="0.05" fill="#E13030" sketch:type="MSShapeGroup" cx="32" cy="32" r="32"></circle>
                <g id="Angular-Copy" transform="translate(18.488889, 15.644444)" sketch:type="MSShapeGroup">
                    <path d="M13.6855344,0.522572981 C14.9569233,0.895808489 16.1830032,1.40023459 17.4280975,1.8492768 C20.8329426,3.07706845 24.2333338,4.31784071 27.6354381,5.55342072 C27.640834,5.60283353 27.64623,5.65215981 27.6516259,5.70157263 C27.6727815,5.74916816 27.6828882,5.79918674 27.682203,5.85136875 C27.6751797,6.83226939 27.4912891,7.79577604 27.3900508,8.76707104 C27.2739094,9.88071995 27.1273622,10.9915131 26.9936625,12.1034313 C26.8307562,13.4579136 26.686179,14.8145593 26.5111103,16.167657 C26.4521831,16.6228434 26.396168,17.0803663 26.3679892,17.5398795 C26.2251249,18.3739263 26.1567762,19.2176653 26.0573366,20.0570774 C25.9274911,21.1534188 25.7948193,22.2496737 25.6675433,23.3464479 C25.6263457,23.7019432 25.6027919,24.059602 25.5459203,24.4145782 C25.5045514,24.6723729 25.4321771,24.8861201 25.2115427,25.0315028 C23.4408999,26.0216629 21.707001,27.0772453 19.9602546,28.1105876 C19.5297776,28.3652669 19.0970737,28.6161386 18.6699371,28.8769622 C17.2364128,29.6988072 15.8222454,30.5539691 14.4013973,31.3974485 C14.2419169,31.4921203 14.0845779,31.5894748 13.9107083,31.6557624 C13.7519989,31.716252 13.631318,31.694185 13.5845531,31.5046682 C13.5417281,31.3190456 13.548837,31.131 13.5487514,30.9438198 C13.5478092,27.4117986 13.5478949,23.8797774 13.548837,20.3477563 C13.5489227,20.1464705 13.5373599,19.9435404 13.5932894,19.7470141 C13.6748282,19.5213248 13.8729367,19.5246997 14.056399,19.5232286 C15.1408139,19.5150075 16.2254,19.5245267 17.3098148,19.5170844 C17.6719431,19.5146614 17.8443566,19.7085916 17.9708617,20.0170971 C18.4515296,21.1890722 18.9228616,22.3648549 19.3971914,23.5393396 C19.6242496,24.1016592 19.622194,24.103563 20.2035863,24.1050341 C20.7601401,24.1064187 21.3166939,24.1080629 21.873162,24.1044284 C22.3250515,24.1015726 22.3548577,24.060727 22.1655712,23.6347037 C21.482084,22.09607 20.8156413,20.5499075 20.1420039,19.0070334 C18.8119448,15.9606598 17.4795732,12.9153245 16.1536253,9.86713359 C15.3672725,8.05936875 14.5692713,6.25679614 13.79234,4.44479097 C13.7299012,4.29914864 13.6676336,4.153939 13.6165862,4.00284482 C13.4880255,2.93393571 13.5654531,1.86234394 13.569393,0.791963692 C13.5698213,0.689936179 13.6138454,0.597860459 13.6855344,0.522572981" id="Fill-31" fill="#B52D2D"></path>
                    <path d="M13.6859798,19.6283455 C13.6858085,23.6349374 13.6856372,27.6416158 13.6854659,31.6482077 C13.6513772,31.6759862 13.6125778,31.6878418 13.5689819,31.6844668 C12.7153082,31.3183274 11.9591899,30.7759979 11.1581053,30.3148405 C9.44202157,29.3267572 7.75959832,28.2800017 6.03512091,27.3061971 C4.94479622,26.6348405 3.83931147,25.9897047 2.73665317,25.3395497 C2.50539813,25.2032534 2.25255928,25.0972452 2.0731225,24.8817672 C1.89240097,24.0374225 1.85599971,23.1749049 1.75056454,22.3213872 C1.56590311,20.8259356 1.42663619,19.3252052 1.26253076,17.8273306 C1.13114363,16.6288751 1.00172646,15.4297273 0.878390438,14.2301468 C0.731671962,12.8028866 0.55300603,11.3783956 0.406544504,9.95122192 C0.268819279,8.60920099 0.077819745,7.27202615 0.0110127331,5.92273608 C0.00227643153,5.84173714 0.0212907349,5.76809387 0.0689121435,5.70215243 C1.29824681,5.13715019 2.58162664,4.71268459 3.84213792,4.2296332 C6.96699308,3.03221616 10.0977581,1.85080851 13.225611,0.661439436 C13.3302753,0.621632263 13.4285159,0.564863774 13.5297542,0.515970182 C13.5816581,0.518220153 13.6336477,0.520383586 13.6855516,0.522547019 C13.6855516,1.52854349 13.6852946,2.53445343 13.6857229,3.5404499 C13.6858085,3.71179382 13.6641391,3.88703191 13.7634074,4.04288564 C12.1441083,7.87397982 10.5357723,11.709747 8.91964213,15.5421393 C7.80105293,18.1949411 6.69522558,20.8532814 5.56473103,23.5009776 C5.53081362,23.5804189 5.50220652,23.6621966 5.46751826,23.7411187 C5.34957819,24.0089517 5.44713356,24.0949698 5.7218988,24.1095081 C6.49471889,24.1502672 7.25751793,23.9950192 8.02845372,24.0102498 C8.29790867,24.0156151 8.37499368,23.8023006 8.45224999,23.5933995 C8.89146327,22.4047227 9.35697111,21.2259112 9.78307993,20.0326479 C9.91455271,19.6645181 10.1086356,19.5048567 10.5015979,19.5130778 C11.4146271,19.5322025 12.3282558,19.5169719 13.2417132,19.5209527 C13.3959689,19.521645 13.5593891,19.5023471 13.6859798,19.6283455" id="Fill-39" fill="#E13030"></path>
                    <path d="M13.6859798,19.6283455 C12.5599391,19.6204706 11.433727,19.6207302 10.3079432,19.5984901 C10.0477385,19.5932979 10.0067121,19.7603149 9.94196071,19.93313 C9.45863767,21.2222766 8.97017564,22.5095194 8.4993575,23.8032525 C8.41516354,24.0346533 8.31940682,24.1539018 8.05654692,24.1556325 C7.21606332,24.1609978 6.37472322,24.1713823 5.53586697,24.2184586 C5.06719009,24.2447659 5.22530002,24.0200285 5.32062848,23.7937334 C6.75115504,20.3974893 8.18159594,17.0012452 9.6122938,13.6050011 C10.9093776,10.5260894 12.2054337,7.44665848 13.5084273,4.3703429 C13.5605026,4.24745989 13.5267565,4.02912621 13.7634931,4.04314526 C14.4947729,5.73970963 15.2203999,7.43912974 15.958446,9.13292491 C18.0710893,13.9816116 20.1889572,18.8280483 22.3039987,23.6756099 C22.3720048,23.8314637 22.4319598,23.9908654 22.5204363,24.2097183 C21.5490795,24.2097183 20.6181495,24.2089395 19.6872195,24.2104106 C19.4870554,24.2107568 19.4804603,24.0363841 19.4310403,23.9153183 C18.9108877,22.6414888 18.3792581,21.3719862 17.8917382,20.0853491 C17.7441632,19.6958446 17.5458834,19.5829999 17.1488099,19.5949421 C15.9951899,19.6296436 14.8403707,19.6203841 13.6859798,19.6283455" id="Fill-45" fill="#FEFEFE"></path>
                    <path d="M13.6863653,10.6405869 C14.0642531,11.1758203 14.2613338,11.8014852 14.5336152,12.3887276 C15.2112781,13.8503431 15.8689846,15.3214777 16.5626641,16.8504193 L13.6860227,16.8504193 C13.5393898,16.7012289 13.5511239,16.5079045 13.5504387,16.3226281 C13.5450427,14.6960724 13.5461562,13.0694302 13.5499248,11.442788 C13.5505243,11.1695897 13.5854695,10.8983817 13.6863653,10.6405869" id="Fill-81" fill="#B52D2D"></path>
                    <path d="M13.6863653,10.6405869 C13.6862796,12.7105599 13.6861083,14.7804463 13.6860227,16.8504193 L11.2140776,16.8504193 C11.5280705,16.0444971 11.8333272,15.260815 12.1385838,14.4770464 C12.6004944,13.2908792 13.0600067,12.1036736 13.5284266,10.920016 C13.5663696,10.8240461 13.553779,10.6863652 13.6863653,10.6405869" id="Fill-83" fill="#E13030"></path>
                </g>
            </g>
            <g id="polymer" sketch:type="MSLayerGroup" transform="translate(656.000000, 47.000000)">
                <circle id="Oval-51" fill-opacity="0.05" fill="#FF538E" sketch:type="MSShapeGroup" cx="32" cy="32" r="32"></circle>
                <g id="logo" transform="translate(15.000000, 20.000000)" sketch:type="MSShapeGroup">
                    <g id="Layer_1">
                        <path d="M20.48,0 L23.8933333,5.86666667 L27.3066667,0 L20.48,0 Z" id="Shape" fill="#FF669A"></path>
                        <path d="M17.0666667,5.86666667 L20.48,0 L23.8933333,5.86666667 L17.0666667,5.86666667 Z" id="Shape" fill="#FF538E"></path>
                        <path d="M17.0666667,5.86666667 L20.48,11.7333333 L23.8933333,5.86666667 L17.0666667,5.86666667 Z" id="Shape" fill="#FF4081"></path>
                        <path d="M13.6533333,11.7333333 L17.0666667,5.86666667 L20.48,11.7333333 L13.6533333,11.7333333 Z" id="Shape" fill="#E53974"></path>
                        <path d="M13.6533333,11.7333333 L17.0666667,17.6 L20.48,11.7333333 L13.6533333,11.7333333 Z" id="Shape" fill="#CC3367"></path>
                        <path d="M10.24,17.6 L13.6533333,11.7333333 L17.0666667,17.6 L10.24,17.6 Z" id="Shape" fill="#B22D5A"></path>
                        <path d="M10.24,17.6 L13.6533333,23.4666667 L17.0666667,17.6 L10.24,17.6 Z" id="Shape" fill="#99264D"></path>
                        <path d="M6.82666667,23.4666667 L10.24,17.6 L13.6533333,23.4666667 L6.82666667,23.4666667 Z" id="Shape" fill="#7F2040"></path>
                        <path d="M6.82666667,0 L10.24,5.86666667 L13.6533333,0 L6.82666667,0 Z" id="Shape" fill="#758AFE"></path>
                        <path d="M3.41333333,5.86666667 L6.82666667,0 L10.24,5.86666667 L3.41333333,5.86666667 Z" id="Shape" fill="#657CFE"></path>
                        <path d="M3.41333333,5.86666667 L6.82666667,11.7333333 L10.24,5.86666667 L3.41333333,5.86666667 Z" id="Shape" fill="#536DFE"></path>
                        <path d="M0,11.7333333 L3.41333333,5.86666667 L6.82666667,11.7333333 L0,11.7333333 Z" id="Shape" fill="#4B62E4"></path>
                        <path d="M0,11.7333333 L3.41333333,17.6 L6.82666667,11.7333333 L0,11.7333333 Z" id="Shape" fill="#4257CB"></path>
                        <path d="M10.24,17.6 L6.82666667,11.7333333 L3.41333333,17.6 L10.24,17.6 Z" id="Shape" fill="#303F9F"></path>
                        <path d="M10.24,17.6 L6.82666667,23.4666667 L3.41333333,17.6 L10.24,17.6 Z" id="Shape" fill="#26327F"></path>
                        <path d="M30.72,5.86666667 L27.3066667,0 L23.8933333,5.86666667 L30.72,5.86666667 Z" id="Shape" fill="#324191"></path>
                        <path d="M30.72,5.86666667 L27.3066667,11.7333333 L23.8933333,5.86666667 L30.72,5.86666667 Z" id="Shape" fill="#3F51B5"></path>
                        <path d="M27.3066667,11.7333333 L30.72,5.86666667 L34.1333333,11.7333333 L27.3066667,11.7333333 Z" id="Shape" fill="#949ED5"></path>
                        <path d="M27.3066667,11.7333333 L30.72,17.6 L34.1333333,11.7333333 L27.3066667,11.7333333 Z" id="Shape" fill="#8792D0"></path>
                        <path d="M23.8933333,17.6 L27.3066667,11.7333333 L30.72,17.6 L23.8933333,17.6 Z" id="Shape" fill="#7986CB"></path>
                        <path d="M23.8933333,17.6 L27.3066667,23.4666667 L30.72,17.6 L23.8933333,17.6 Z" id="Shape" fill="#6D78B6"></path>
                        <path d="M20.48,23.4666667 L23.8933333,17.6 L27.3066667,23.4666667 L20.48,23.4666667 Z" id="Shape" fill="#616BA2"></path>
                    </g>
                </g>
            </g>
            <g id="meteor" sketch:type="MSLayerGroup" transform="translate(641.000000, 124.000000)" fill="#DE4F4F">
                <circle id="Oval-51" fill-opacity="0.05" sketch:type="MSShapeGroup" cx="32" cy="32" r="32"></circle>
                <g id="logo" transform="translate(12.800000, 13.511111)" sketch:type="MSShapeGroup">
                    <g id="meteor-logo">
                        <g id="svg2">
                            <g id="g6" transform="translate(0.162354, 0.162225)">
                                <path d="M0.0615144325,0.0613952635 L30.7572162,32.5394897 C30.7572162,32.5394897 31.8029625,33.2762329 32.6026501,32.4166999 C33.4023377,31.5571655 32.7871931,30.6976325 32.7871931,30.6976325 L0.0615144325,0.0613952635 L0.0615144325,0.0613952635 L0.0615144325,0.0613952635 Z" id="path8"></path>
                                <path d="M9.7807949,3.13115844 L33.156279,28.3032175 C33.156279,28.3032175 34.2020253,29.0399593 35.0017129,28.1804263 C35.8014006,27.3208918 35.1862559,26.4613588 35.1862559,26.4613588 L9.7807949,3.13115844 L9.7807949,3.13115844 L9.7807949,3.13115844 Z" id="path10"></path>
                                <path d="M2.95269284,9.70045172 L26.328178,34.8725105 C26.328178,34.8725105 27.3739229,35.6092537 28.1736105,34.7497193 C28.9732981,33.8901862 28.3581534,33.0306518 28.3581534,33.0306518 L2.95269284,9.70045172 L2.95269284,9.70045172 L2.95269284,9.70045172 Z" id="path12"></path>
                                <path d="M17.9971849,5.77115476 L34.3282391,23.3573695 C34.3282391,23.3573695 35.0588402,23.8720873 35.6175336,23.2715832 C36.176227,22.6710776 35.7464626,22.0705721 35.7464626,22.0705721 L17.9971849,5.77115476 L17.9971849,5.77115476 L17.9971849,5.77115476 Z" id="path14"></path>
                                <path d="M5.20218229,17.313464 L21.5332375,34.8996779 C21.5332375,34.8996779 22.2638372,35.4143971 22.822532,34.8138916 C23.3812253,34.2133874 22.951461,33.6128819 22.951461,33.6128819 L5.20218229,17.313464 L5.20218229,17.313464 L5.20218229,17.313464 Z" id="path16"></path>
                                <path d="M26.3896923,9.57766119 L33.7914754,17.5725349 C33.7914754,17.5725349 34.1528798,17.8137184 34.4292483,17.5323372 C34.7056153,17.250956 34.4930248,16.9695735 34.4930248,16.9695735 L26.3896923,9.57766119 L26.3896923,9.57766119 L26.3896923,9.57766119 Z" id="path18"></path>
                                <path d="M9.28867948,25.417639 L16.6904642,33.4125126 C16.6904642,33.4125126 17.0518671,33.653696 17.3282356,33.3723148 C17.6046026,33.0909337 17.3920122,32.8095525 17.3920122,32.8095525 L9.28867948,25.417639 L9.28867948,25.417639 L9.28867948,25.417639 Z" id="path20"></path>
                            </g>
                        </g>
                    </g>
                </g>
            </g>
            <g id="webpack" sketch:type="MSLayerGroup" transform="translate(85.000000, 163.000000)">
                <circle id="Oval-51" fill-opacity="0.2" fill="#6F95DB" sketch:type="MSShapeGroup" cx="67.5" cy="67.5" r="67.5"></circle>
                <g transform="translate(35.000000, 30.000000)" id="Group" sketch:type="MSShapeGroup">
                    <g>
                        <path d="M32.2581486,0.115562404 L0.0750587189,18.825 L0.0750587189,56.2438752 L32.2581486,74.9534284 L64.4413532,56.2438752 L64.4413532,18.825 L32.2581486,0.115562404 Z" id="Shape" fill="#A2BDE9"></path>
                        <path d="M32.2584929,19.0937982 L16.2988746,28.3718413 L16.2988746,46.9280431 L32.2584929,56.2062018 L48.2183407,46.9280431 L48.2183407,28.3718413 L32.2584929,19.0937982 Z" id="Shape" fill="#6F95DB"></path>
                        <path d="M32.25,0 L0,18.8366718 L32.25,36.5177196 L64.5,18.9522342 L32.25,0 Z" id="Shape" fill-opacity="0.06" fill="#FFFFFF"></path>
                        <path d="M32.25,38.94453 L0,56.1633282 L32.25,74.8844376 L64.3852313,56.0477658 L32.25,38.94453 Z" id="Shape" fill-opacity="0.06" fill="#FFFFFF"></path>
                    </g>
                </g>
            </g>
            <g id="gulp" sketch:type="MSLayerGroup" transform="translate(18.000000, 143.000000)" fill="#DA4648">
                <circle id="Oval-51" fill-opacity="0.05" sketch:type="MSShapeGroup" cx="32" cy="32" r="32"></circle>
                <g transform="translate(22.755556, 9.244444)" id="Page-1" sketch:type="MSShapeGroup">
                    <g>
                        <g>
                            <g id="gulp">
                                <g id="Gulp-Logo">
                                    <path d="M9.51442286,33.6844491 C7.03773257,33.6844491 5.12398629,33.3096235 4.20370286,33.0862314 C3.57438171,32.9334715 3.06903771,32.7754059 2.68514743,32.6130294 L3.91252114,34.7256926 L4.39263086,41.3267565 C4.39263086,42.066791 6.72603429,42.6666667 9.60438857,42.6666667 C12.4827429,42.6666667 14.8161463,42.066791 14.8161463,41.3267565 L15.1963063,34.6538446 L16.357632,32.6068394 C15.972096,32.7714266 15.4622537,32.9315924 14.8250331,33.0862314 C13.9047497,33.3096235 11.9910034,33.6844491 9.51442286,33.6844491 L9.51442286,33.6844491 Z M16.3974583,12.2043247 C14.579712,12.4601036 12.1672046,12.6010363 9.60438857,12.6010363 C7.04157257,12.6010363 4.62906514,12.4601036 2.81131886,12.2043247 C1.91089371,12.0776511 1.19851886,11.9282073 0.693942857,11.7604145 C0.573586286,11.7202902 0.369627429,11.6518687 0.173348571,11.5428808 L1.29956571,21.9854922 C1.35189943,21.8056511 1.41015771,21.6260311 1.47477943,21.4470743 C1.60698514,21.0803178 1.75992686,20.7217409 1.93349486,20.3714542 C2.10717257,20.0212781 2.29621029,19.6902245 2.500608,19.3784041 C2.704896,19.0666943 2.92245943,18.7796339 3.15296914,18.5173333 C3.38358857,18.2551434 3.62013257,18.0296511 3.86304,17.8406356 C4.10583771,17.6518411 4.35093943,17.5041658 4.59834514,17.3978307 C4.84586057,17.2914957 5.09096229,17.2382176 5.33376,17.2382176 C5.61342171,17.2382176 5.88397714,17.3152608 6.14531657,17.4693472 C6.40654629,17.623323 6.65077029,17.8728014 6.87831771,18.2175613 C6.93054171,18.2946045 6.96367543,18.372532 6.97738971,18.4513437 C6.99132343,18.530266 6.99812571,18.6045458 6.99812571,18.6741831 C6.99812571,18.8392124 6.95895771,18.9695337 6.88062171,19.0648152 C6.80228571,19.1602073 6.709248,19.207848 6.601728,19.207848 C6.50320457,19.207848 6.41181257,19.1555648 6.32733257,19.0511088 C6.24274286,18.9465423 6.14827886,18.7970984 6.04372114,18.6026667 C5.94530743,18.4265838 5.83701943,18.299247 5.71874743,18.2203247 C5.60036571,18.141513 5.47210971,18.1020518 5.33376,18.1020518 C5.11861029,18.1020518 4.88886857,18.1919171 4.64453486,18.3716477 C4.40009143,18.5512677 4.15806171,18.7888083 3.91844571,19.0840484 C3.67861029,19.379399 3.44886857,19.716753 3.22911086,20.0964421 C3.00935314,20.4760207 2.81482971,20.8647737 2.64576,21.2627012 C2.47669029,21.6608497 2.3424,22.053361 2.24245029,22.4402349 C2.14250057,22.8271088 2.09258057,23.1746321 2.09258057,23.4826943 C2.09258057,23.5854922 2.09960229,23.6910535 2.11331657,23.7990466 C2.12725029,23.9073713 2.15325257,24.0054162 2.19176229,24.093513 C2.23005257,24.1816097 2.28238629,24.2538998 2.34843429,24.3106045 C2.414592,24.3676408 2.498304,24.3959378 2.59968,24.3959378 C2.71345371,24.3959378 2.84247771,24.3574715 2.98708114,24.2804283 C3.13146514,24.2036062 3.28133486,24.1025769 3.43647086,23.9780035 C3.59171657,23.853209 3.74773029,23.7120553 3.904512,23.5542107 C4.06140343,23.3965872 4.20732343,23.2370846 4.34249143,23.0755924 C4.47765943,22.9143212 4.59757714,22.7592401 4.70202514,22.610791 C4.80658286,22.4622314 4.88491886,22.332905 4.93725257,22.2228117 L5.366016,20.9298791 C5.41824,20.7906045 5.486592,20.6915648 5.57118171,20.6328705 C5.65566171,20.5741762 5.74255543,20.5447737 5.83175314,20.5447737 C5.87465143,20.5447737 5.91765943,20.5521796 5.96077714,20.5667703 C6.00389486,20.5814715 6.04218514,20.6044629 6.07608686,20.6355233 C6.10987886,20.6668048 6.13675886,20.7070397 6.15672686,20.7566701 C6.17669486,20.8060794 6.18667886,20.8638895 6.18667886,20.9298791 C6.18667886,21.105962 6.17131886,21.2708808 6.14059886,21.4250777 C6.10987886,21.5792746 6.07071086,21.7294922 6.02298514,21.8762832 C5.97536914,22.0228532 5.92226743,22.1705285 5.86389943,22.3190881 C5.80553143,22.4676477 5.74858971,22.6226183 5.69340343,22.7841105 C5.68111543,22.8024594 5.65884343,22.8600484 5.62647771,22.957209 C5.59422171,23.0545907 5.55516343,23.1766218 5.50897371,23.3231917 C5.46289371,23.4699827 5.412864,23.6340173 5.359104,23.8156269 C5.30523429,23.9972366 5.250048,24.1823834 5.193216,24.3712884 C5.13627429,24.5601934 5.08174629,24.7454508 5.02952229,24.9270604 C4.97718857,25.1085596 4.93023086,25.2727047 4.88886857,25.4194957 C4.84739657,25.5660656 4.81283657,25.6888705 4.78507886,25.7880207 C4.75743086,25.8870604 4.74053486,25.9456442 4.73439086,25.9642142 C4.71903086,26.0226874 4.69434514,26.0879033 4.66066286,26.1593092 C4.62687086,26.2308256 4.58693486,26.2988048 4.54074514,26.3629154 C4.49466514,26.4270259 4.44397714,26.4804145 4.38857143,26.522418 C4.33327543,26.564532 4.27644343,26.5857547 4.21796571,26.5857547 C4.11966171,26.5857547 4.048128,26.5527047 4.00369371,26.4868256 C3.95904,26.4207254 3.93687771,26.2996891 3.93687771,26.1237168 L3.93687771,26.0466736 C3.93687771,26.0209188 3.938304,25.993285 3.941376,25.9642142 C3.94433829,25.9054093 3.967488,25.7953161 4.01060571,25.6338238 C4.05361371,25.4725527 4.10506971,25.2901693 4.16508343,25.086563 C4.22498743,24.8829568 4.28960914,24.6720553 4.35872914,24.4537478 C4.42773943,24.2355509 4.49005714,24.0403454 4.54546286,23.8679102 C4.38231771,24.051399 4.20578743,24.2337824 4.01521371,24.4153921 C3.82453029,24.5968912 3.62934857,24.760152 3.42966857,24.9049534 C3.22976914,25.0498653 3.02844343,25.1681382 2.82569143,25.2598826 C2.62282971,25.3515164 2.427648,25.3974991 2.24014629,25.3974991 C2.02499657,25.3974991 1.83979886,25.3497478 1.68444343,25.2543558 C1.65646629,25.2370017 1.63002514,25.217658 1.60369371,25.1984249 L2.23038171,31.8181693 C2.39352686,32.2301347 5.46486857,33.2423074 9.51442286,33.2423074 C13.5658423,33.2423074 16.6383909,32.2291399 16.7986834,31.817506 L17.6988891,23.9471641 C17.6243931,24.0160276 17.551872,24.0833437 17.4825326,24.1485596 C17.2242651,24.3905216 16.9805897,24.5986598 16.751616,24.7728636 C16.522752,24.9470674 16.2990446,25.0820311 16.0808229,25.1772021 C15.8624914,25.2727047 15.6289097,25.3203454 15.379968,25.3203454 C15.1463863,25.3203454 14.9656869,25.2689465 14.8381989,25.1662591 C14.7107109,25.0636822 14.6468571,24.9225285 14.6468571,24.7426874 L14.6468571,24.7014577 C14.6468571,24.6886356 14.6483931,24.6729396 14.6515749,24.6545907 C14.6637531,24.5447185 14.7115886,24.4179344 14.7945326,24.2750121 C14.8774766,24.1318687 14.9773166,23.9834197 15.0940526,23.8294439 C15.2108983,23.6753575 15.3353143,23.5193921 15.46752,23.361658 C15.5997257,23.2040345 15.7219474,23.0545907 15.8341851,22.9132159 C15.9463131,22.7722832 16.0392411,22.6429568 16.1129691,22.5254577 C16.1869166,22.4080691 16.2237806,22.3127876 16.2237806,22.2393921 C16.2237806,22.195399 16.2083109,22.1605803 16.1777006,22.134715 C16.1468709,22.1092919 16.0960731,22.0962487 16.0255269,22.0962487 C15.9025371,22.0962487 15.7757074,22.1284145 15.6452571,22.192525 C15.5144777,22.2566356 15.3852343,22.3430743 15.2577463,22.4511779 C15.1302583,22.5593921 15.0057326,22.6833022 14.8842789,22.8225769 C14.7630446,22.961962 14.6492709,23.1068739 14.5431771,23.2570915 C14.4370834,23.4076408 14.3404251,23.5589637 14.2527634,23.711171 C14.1651017,23.8633782 14.0906057,24.0036477 14.029056,24.1318687 C14.010624,24.1723247 13.984512,24.2292504 13.9506103,24.3024249 C13.9168183,24.3758204 13.8799543,24.4585009 13.8400183,24.5501347 C13.7999726,24.6418791 13.7577326,24.7363869 13.7131886,24.8333264 C13.6686446,24.9307081 13.6279406,25.0224525 13.5910766,25.1085596 C13.5542126,25.1947772 13.5211886,25.2715993 13.4921143,25.3395786 C13.4627109,25.4073368 13.4419749,25.4542038 13.4296869,25.4799585 C13.4143269,25.5128981 13.3889829,25.5751295 13.3536549,25.6668739 C13.3183269,25.7586183 13.2775131,25.8659482 13.2315429,25.988753 C13.1854629,26.1115579 13.1369691,26.2408843 13.0861714,26.3767323 C13.0357029,26.5122487 12.9878674,26.6408014 12.9433234,26.7618377 C12.8986697,26.8827634 12.8595017,26.989209 12.8258194,27.0809534 C12.7920274,27.1724767 12.770304,27.2349292 12.761088,27.2679793 C12.7304777,27.3633713 12.694272,27.4530155 12.6529097,27.5376857 C12.611328,27.6219136 12.5638217,27.6961934 12.509952,27.760525 C12.456192,27.8246356 12.394752,27.875924 12.3255223,27.9143903 C12.2562926,27.9530777 12.1787246,27.9722003 12.0928183,27.9722003 C11.9820069,27.9722003 11.8907246,27.9454508 11.8183131,27.8923938 C11.7462309,27.8392263 11.7100251,27.7373126 11.7100251,27.587095 C11.7100251,27.5136995 11.7192411,27.4385354 11.7376731,27.3616028 C11.7561051,27.2845596 11.7792549,27.2082902 11.8069029,27.1332366 C11.8345509,27.0578515 11.8630766,26.984677 11.8922606,26.9131606 C11.9213349,26.8415337 11.9483246,26.7728912 11.9727909,26.706791 C12.1388983,26.3400345 12.307968,25.9723938 12.48,25.6036477 C12.652032,25.2351226 12.8172617,24.8702453 12.9756891,24.508905 C13.0086034,24.4335199 13.0388846,24.3596822 13.0710309,24.2847392 C13.061376,24.2942453 13.0519406,24.3041934 13.0425051,24.3134784 C12.8426057,24.5080207 12.6436937,24.6793506 12.44544,24.8279102 C12.2470766,24.9764698 12.0503589,25.0947427 11.8553966,25.1828394 C11.6601051,25.270715 11.4702994,25.3148187 11.28576,25.3148187 C11.159808,25.3148187 11.054592,25.2947012 10.970112,25.2543558 C10.8855223,25.2138998 10.818048,25.1588532 10.7672503,25.0893264 C10.7164526,25.0196891 10.6802469,24.9371192 10.6587429,24.8417271 C10.6515017,24.8091192 10.6470034,24.7750743 10.6422857,24.7411399 C10.5883063,24.783475 10.533888,24.8247047 10.4790309,24.8638342 C10.2884571,24.9993506 10.1009554,25.1085596 9.91652571,25.191019 C9.73220571,25.2735889 9.56609829,25.3148187 9.418752,25.3148187 C9.27107657,25.3148187 9.15126857,25.2652988 9.05888914,25.1662591 C8.96672914,25.0673299 8.92075886,24.8985423 8.92075886,24.660228 C8.92075886,24.4913299 8.94533486,24.2951295 8.99437714,24.0715164 C8.91450514,24.2145492 8.81466514,24.3594611 8.69485714,24.5060311 C8.57482971,24.6528221 8.43812571,24.7866805 8.28452571,24.9078273 C8.13059657,25.028753 7.95856457,25.1269085 7.76810057,25.2020725 C7.57741714,25.2772366 7.36994743,25.3148187 7.14569143,25.3148187 C7.04420571,25.3148187 6.94666971,25.3019965 6.852864,25.2763523 C6.75905829,25.2505976 6.67688229,25.2066045 6.60622629,25.1442625 C6.53546057,25.0820311 6.47873829,24.9984663 6.43562057,24.8940104 C6.39261257,24.7895544 6.37110857,24.6582383 6.37110857,24.5006149 C6.37110857,24.4969672 6.37725257,24.4410363 6.38954057,24.3327116 C6.40182857,24.2244974 6.44099657,24.0539413 6.50715429,23.8210432 C6.57320229,23.5882556 6.675456,23.286494 6.81358629,22.9159793 C6.95204571,22.5455751 7.14722743,22.0962487 7.39924114,21.5682211 C7.46375314,21.4287254 7.53835886,21.3288014 7.62272914,21.2683385 C7.70742857,21.2077651 7.79871086,21.1774784 7.89701486,21.1774784 C7.94013257,21.1774784 7.98467657,21.184 8.03075657,21.1967116 C8.077056,21.2096442 8.11995429,21.2297617 8.16,21.257285 C8.19982629,21.2848083 8.232192,21.3197375 8.25687771,21.3618515 C8.28123429,21.4039655 8.29374171,21.4524905 8.29374171,21.5075371 C8.29374171,21.5442349 8.289024,21.5792746 8.279808,21.6119931 C8.26433829,21.6746667 8.23131429,21.7560207 8.18084571,21.856829 C8.130048,21.9578584 8.07080229,22.0733679 8.00310857,22.2035786 C7.93563429,22.3337893 7.86410057,22.4740587 7.78883657,22.6246079 C7.71346286,22.7748256 7.64357486,22.9306805 7.57906286,23.0921727 C7.51455086,23.2536649 7.45914514,23.4176995 7.41306514,23.5846079 C7.36698514,23.7515164 7.34076343,23.9138929 7.33472914,24.0715164 C7.33472914,24.137506 7.34997943,24.1979689 7.38080914,24.2530155 C7.41152914,24.3080622 7.46232686,24.335475 7.53298286,24.335475 C7.73266286,24.335475 7.92323657,24.2693748 8.104704,24.137506 C8.285952,24.0054162 8.453376,23.8412712 8.60719543,23.6450708 C8.76090514,23.4488705 8.89991314,23.2378584 9.02443886,23.0122556 C9.14896457,22.7866528 9.25264457,22.5805043 9.33558857,22.3933679 C9.39406629,22.2687945 9.44552229,22.134715 9.49006629,21.9917927 C9.53461029,21.8486494 9.583104,21.7167807 9.635328,21.5956339 C9.68766171,21.474487 9.747456,21.3736788 9.81514971,21.2929879 C9.882624,21.2124076 9.96732343,21.1719516 10.0685897,21.1719516 C10.1794011,21.1719516 10.2668434,21.2141762 10.3315749,21.2985147 C10.3960869,21.3829637 10.4282331,21.483772 10.4282331,21.6010501 C10.4282331,21.6670397 10.4076069,21.7580104 10.3660251,21.8735199 C10.3244434,21.9890294 10.2722194,22.1211192 10.2092434,22.2696788 C10.1461577,22.4182383 10.0778057,22.5768566 10.0041874,22.7454231 C9.93045943,22.9143212 9.861888,23.0856511 9.79913143,23.2599655 C9.73582629,23.4341693 9.68382171,23.6047254 9.64224,23.7716339 C9.60065829,23.9384318 9.580032,24.093513 9.580032,24.2364352 C9.580032,24.368525 9.647616,24.4346252 9.782784,24.4346252 C9.87812571,24.4346252 9.99639771,24.4015751 10.1378194,24.335475 C10.2792411,24.2693748 10.4275749,24.1768566 10.5827109,24.0575889 C10.62144,24.0278549 10.6604983,23.9967945 10.6992274,23.9641865 C10.7425646,23.7841244 10.7933623,23.617658 10.8524983,23.4663351 C10.9600183,23.1800484 11.069184,22.8959724 11.1798857,22.6135544 C11.2904777,22.3311364 11.3918537,22.0724836 11.4842331,21.8377064 L12.8811154,18.2890777 C12.9364114,18.1460449 13.0110171,18.0451261 13.1046034,17.9864318 C13.1985189,17.927848 13.2929829,17.8984456 13.3883246,17.8984456 C13.4834469,17.8984456 13.5702309,17.9296166 13.6486766,17.9919585 C13.7271223,18.0544111 13.7664,18.1552193 13.7664,18.2946045 C13.7664,18.3605941 13.7532343,18.430342 13.7271223,18.5036269 C13.7010103,18.5770225 13.6679863,18.6558342 13.6279406,18.7401727 C13.5512503,18.9127185 13.4597486,19.1235095 13.3536549,19.3728774 C13.2475611,19.6223558 13.1337874,19.8938307 13.0124434,20.1871917 C12.8909897,20.4806632 12.766464,20.785962 12.638976,21.1031986 C12.511488,21.4205458 12.3869623,21.7294922 12.2655086,22.0302591 C12.1442743,22.3311364 12.0303909,22.6160967 11.9242971,22.8858031 C11.8183131,23.155399 11.7270309,23.3892919 11.6500114,23.5872608 C11.6162194,23.6715993 11.5831954,23.7698653 11.5510491,23.8817271 C11.5186834,23.9934784 11.5026651,24.093513 11.5026651,24.1816097 C11.5026651,24.2364352 11.5118811,24.2804283 11.5303131,24.3134784 C11.5487451,24.3465285 11.5840731,24.3631088 11.6362971,24.3631088 C11.7008091,24.3631088 11.7814491,24.340228 11.8783269,24.2942453 C11.9750949,24.2484836 12.0795429,24.1877997 12.1917806,24.1126356 C12.304128,24.037582 12.420864,23.9513644 12.5420983,23.8540933 C12.6636617,23.7569326 12.7842377,23.6561244 12.9040457,23.5515579 C13.0240731,23.4468808 13.1385051,23.3424249 13.2475611,23.2378584 C13.3566171,23.1334024 13.4543726,23.0371261 13.5404983,22.9490294 C13.5606857,22.9279171 13.5848229,22.9129948 13.6113737,22.9018307 C13.6632686,22.7456442 13.7106651,22.5926632 13.7524663,22.4429983 C13.7770423,22.3768981 13.810944,22.2834957 13.853952,22.1623489 C13.8968503,22.0412021 13.946112,21.9220449 14.001408,21.8046563 C14.056704,21.6873782 14.1191314,21.5854646 14.188032,21.4993575 C14.2572617,21.4132504 14.3318674,21.3700311 14.4117394,21.3700311 C14.5347291,21.3700311 14.6239269,21.3985492 14.6792229,21.4552539 C14.7345189,21.5122902 14.7621669,21.5956339 14.7621669,21.7057271 C14.7621669,21.7277237 14.7590949,21.7625423 14.7529509,21.8101831 C14.7466971,21.8579344 14.7392366,21.9084491 14.7300206,21.9616166 C14.7208046,22.0146736 14.7107109,22.0651883 14.6999589,22.1129396 C14.6890971,22.1605803 14.6792229,22.195399 14.6700069,22.2173955 C14.7835611,22.092601 14.9065509,21.9689119 15.0387566,21.8461071 C15.1709623,21.7231917 15.3076663,21.6119931 15.449088,21.5131744 C15.5906194,21.4140242 15.7350034,21.3335544 15.8826789,21.2708808 C16.0300251,21.2087599 16.1777006,21.1774784 16.3251566,21.1774784 C16.4265326,21.1774784 16.5272503,21.1921796 16.6270903,21.221582 C16.7269303,21.2508739 16.8162377,21.2939827 16.894464,21.3507979 C16.9729097,21.4078342 17.0367634,21.4792401 17.0858057,21.5654577 C17.1349577,21.6515648 17.1595337,21.7514888 17.1595337,21.8652297 C17.1595337,22.0157789 17.1220114,22.1761658 17.0466377,22.3467219 C16.9713737,22.5172781 16.8769097,22.6887185 16.763136,22.8609326 C16.6493623,23.0334784 16.5263726,23.2011606 16.3943863,23.3644214 C16.2621806,23.5276822 16.1385326,23.6761313 16.0232229,23.8099896 C15.9079131,23.9440691 15.8110354,24.0575889 15.7325897,24.1511019 C15.6544731,24.2448359 15.61344,24.3080622 15.6104777,24.3411123 C15.6104777,24.3851054 15.6244114,24.4208083 15.6520594,24.4484421 C15.6797074,24.4758549 15.7257874,24.4896718 15.7902994,24.4896718 C15.8425234,24.4896718 15.9195429,24.4602694 16.0208091,24.4015751 C16.1221851,24.3428808 16.2644846,24.2411883 16.4472686,24.0962763 C16.6300526,23.9513644 16.8623177,23.7569326 17.1435154,23.512981 C17.3363931,23.3458515 17.5621851,23.1465561 17.8166126,22.919848 L19.0359771,11.5425492 C18.8395886,11.6517582 18.6353006,11.7202902 18.5148343,11.7604145 C18.010368,11.9282073 17.2979931,12.0776511 16.3974583,12.2043247 L16.3974583,12.2043247 Z M9.59714743,9.50493955 C4.32554035,9.50493955 0.0520045714,10.0987778 0.0520045714,10.8313644 C0.0520045714,11.563951 4.32554035,12.1577893 9.59714743,12.1577893 C14.8687545,12.1577893 19.1422903,11.563951 19.1422903,10.8313644 C19.1422903,10.0987778 14.8687545,9.50493955 9.59714743,9.50493955 L9.59714743,9.50493955 Z M13.4084023,11.2190121 C13.4084023,11.3908946 12.9005349,11.5302798 12.2739566,11.5302798 C11.647488,11.5302798 11.1396206,11.3908946 11.1396206,11.2190121 C11.1396206,11.047019 11.647488,10.9076339 12.2739566,10.9076339 C12.9005349,10.9076339 13.4084023,11.047019 13.4084023,11.2190121 L13.4084023,11.2190121 Z" id="Cup"></path>
                                    <path d="M11.3693354,11.0813948 C11.3637108,11.0904294 11.3608046,11.0996548 11.3608046,11.1090294 C11.3608046,11.2203385 11.7697097,11.3104249 12.2739566,11.3104249 C12.7783131,11.3104249 13.1871086,11.2203385 13.1871086,11.1090294 L14.3798126,6.23684974 L19.1230953,1.19148755 C19.1246441,1.18994825 19.1261421,1.18835527 19.1275886,1.18670812 C19.2279771,1.07230397 19.0242377,0.718259067 18.686208,0.414618307 C18.3481783,0.110977547 17.9831589,0.00817962003 17.8697143,0.123799655 C17.8688663,0.124664354 17.8680393,0.125541268 17.8672329,0.1264303 L12.8064,5.49162003 L11.3693354,11.0813948 L11.3693354,11.0813948 Z" id="Straw"></path>
                                </g>
                            </g>
                        </g>
                    </g>
                </g>
            </g>
            <g id="grunt" sketch:type="MSLayerGroup" transform="translate(2.000000, 234.000000)">
                <circle id="Oval-51" fill-opacity="0.100000001" fill="#FBA919" sketch:type="MSShapeGroup" cx="32" cy="32" r="32"></circle>
                <g id="grunt-logo-no-wordmark" transform="translate(12.800000, 13.511111)" sketch:type="MSShapeGroup">
                    <g id="Layer_1">
                        <g id="Layer_1_1_" transform="translate(5.540741, 0.000000)">
                            <g id="Group">
                                <path d="M1.83518025,8.80151342 C1.83518025,8.80151342 2.45845926,11.1934746 2.5473284,11.9909391 C2.63652346,12.7881875 0.944750617,14.5599705 0.944750617,15.4459701 C0.944750617,16.3319698 1.30044444,17.9265745 3.25947654,18.7240391 C5.21850864,19.5213955 5.48533333,21.558892 5.48533333,22.7994644 C5.48533333,24.0397125 4.77318519,26.4314575 4.77318519,26.4314575 C4.77318519,26.4314575 4.32818765,32.3670929 6.73189136,33.4301628 C9.13559506,34.4931245 8.60161975,34.4931245 9.13559506,34.4931245 C9.66967901,34.4931245 13.5874173,36.0881617 15.9021432,35.4679835 C18.2170864,34.8478054 18.8399309,34.1392003 18.8399309,34.1392003 C18.8399309,34.1392003 21.1550914,34.3161624 21.8672395,32.2783416 C22.5798222,30.2409533 23.0247111,25.9886739 22.7575605,24.0394963 C22.4904099,22.0902107 22.1343901,19.5215036 23.7368593,18.6353959 C25.3398716,17.7493962 27.0313185,16.6866507 26.7641679,15.800543 C26.4970173,14.9145433 25.0728296,13.6741871 25.0728296,13.6741871 C25.0728296,13.6741871 24.7165926,11.4596204 24.9835259,10.9279774 C25.2504593,10.3964425 26.8532543,9.06722683 25.9628247,8.0929083 C25.0729383,7.11848167 23.4698173,7.11848167 23.4698173,7.11848167 L21.422242,7.29544377 C21.422242,7.29544377 17.9499358,4.19487746 13.4091358,4.37205577 C8.86855309,4.54923408 6.0192,7.29544377 6.0192,7.29544377 C6.0192,7.29544377 4.50581728,6.76390885 3.17017284,7.29544377 C1.8345284,7.82719489 1.56824691,7.29533567 1.83518025,8.80151342 L1.83518025,8.80151342 Z" id="Shape" fill="#FBA919"></path>
                                <path d="M9.97061728,21.9918383 C9.97061728,21.9918383 8.20746667,24.6743763 6.91419259,26.5780431 C6.71407407,26.8725115 8.20746667,26.8929427 8.20746667,26.8929427 L9.97061728,21.9918383 L9.97061728,21.9918383 Z" id="Shape" fill="#E78724"></path>
                                <path d="M10.8100938,16.430234 C10.8100938,16.430234 10.2786173,17.7496124 9.98745679,18.4490289 C9.67141728,19.2094147 8.46646914,19.5876617 8.46646914,19.5876617 C8.46646914,19.5876617 9.09105185,18.9358098 9.09105185,17.2844518 C9.09105185,16.5916295 9.98995556,16.316187 9.98995556,16.316187 L10.8100938,16.430234 L10.8100938,16.430234 Z" id="Shape" fill="#E78724"></path>
                                <path d="M10.2731852,17.1762422 C10.2731852,17.1762422 9.18426667,18.4660009 7.16243951,17.7436669 C5.14017778,17.021549 4.93288889,14.4417075 4.93288889,13.7193735 C4.93288889,12.9970395 8.76979753,14.4417075 9.28845432,14.7513101 C9.80711111,15.0609127 10.7916247,16.2989988 10.2731852,17.1762422 L10.2731852,17.1762422 Z" id="Shape" fill="#E78724"></path>
                                <path d="M2.63576296,3.39427799 C2.63576296,3.39427799 4.5022321,3.03289479 5.74650864,4.013267 C6.9913284,4.99342301 7.35375802,5.76753762 7.35375802,5.76753762 L5.25642469,7.42181438 C5.25642469,7.42181438 4.24301235,6.95427554 3.93186173,5.61273632 C3.62081975,4.2713052 3.82821728,3.6523162 2.63576296,3.39427799 L2.63576296,3.39427799 Z" id="Shape" fill="#E78724"></path>
                                <path d="M9.72878025,13.4507414 C8.92515556,12.3156759 7.60080988,11.8205712 6.54339753,11.7385222 C4.74037531,11.5982065 3.88438519,12.2324378 3.88438519,12.2324378 C3.88438519,12.2324378 6.83727407,12.3568626 7.68837531,13.4691186 C9.27280988,15.5392617 11.5842765,15.7074676 11.9538765,15.2527928 C11.526479,15.2739807 11.0562765,15.063291 10.5530469,14.5898065 C10.238637,14.2936085 9.98376296,13.8110435 9.72878025,13.4507414 L9.72878025,13.4507414 Z" id="Shape" fill="#E78724"></path>
                                <path d="M4.74396049,17.4642246 C4.74396049,17.4642246 1.46764444,16.3435366 2.09038025,15.2086874 C2.7124642,14.0735139 2.21727407,13.4550654 2.21727407,13.4550654 C2.21727407,13.4550654 0.387851852,14.8139009 0.854034568,16.2583527 C1.14052346,17.1450009 1.62115556,17.7869074 4.26039506,19.0176427 C5.52629136,21.3572827 4.52178765,25.5685916 4.58197531,25.5883742 C4.68225185,25.6215613 6.35935802,24.76356 6.24484938,20.8235858 C6.20997531,19.6137141 6.11274074,17.9620318 4.74396049,17.4642246 L4.74396049,17.4642246 Z" id="Shape" fill="#E78724"></path>
                                <path d="M9.03727407,5.41307291 C7.6634963,6.10751674 5.78149136,7.07459247 5.78149136,7.07459247 L6.52221235,7.44332658 C6.45148642,7.55726552 6.41737284,7.62526135 6.41737284,7.62526135 L7.17764938,7.96924022 C7.17764938,7.96924022 9.03358025,9.30699588 10.1707358,10.1670512 C9.79157531,9.00539279 8.67864691,7.18042381 8.67864691,7.18042381 C8.67864691,7.18042381 8.36325926,6.34188072 9.03727407,5.41307291 L9.03727407,5.41307291 Z" id="Shape" fill="#E78724"></path>
                                <path d="M13.6009975,33.7205233 C9.37851852,33.7205233 7.94824691,31.5875732 7.94824691,31.5875732 L8.60813827,33.1865021 C8.85758025,33.8782434 11.5184395,36.0307598 13.5945877,36.0307598" id="Shape" fill="#E78724"></path>
                                <path d="M8.41095309,30.1463645 C8.41095309,30.1463645 8.79945679,32.508814 10.3549926,32.508814 C11.6768395,32.508814 12.066321,30.5132609 12.066321,30.1008538 L8.41095309,30.1463645 L8.41095309,30.1463645 Z" id="Shape" fill="#E78724"></path>
                                <path d="M5.82234074,26.5834482 C5.96053333,26.2048769 6.44442469,24.6743763 6.59989136,23.2814889 C6.78621235,21.613267 6.71831111,19.1733088 6.71831111,19.1733088 C6.71831111,19.1733088 6.30329877,20.77267 5.94032593,21.0311406 C5.57757037,21.2889626 4.90333827,23.0429089 4.90333827,23.0429089 C4.90333827,23.0429089 4.54221235,25.654208 4.37034074,26.5318838 C4.84597531,26.6266888 5.24642963,26.347787 5.82234074,26.5834482 L5.82234074,26.5834482 Z" id="Shape" fill="#E78724"></path>
                                <path d="M2.0659358,16.2327326 C2.0659358,16.2327326 2.94713086,15.9229138 3.20667654,14.0142743 C3.46578765,12.1052024 2.89530864,10.4542768 2.89530864,10.4542768 C2.89530864,10.4542768 2.94713086,13.0854665 2.63619753,13.6015429 C2.32482963,14.117295 2.0659358,14.2720963 1.70274568,14.942974 C1.33955556,15.6139598 1.85821235,16.0262588 2.0659358,16.2327326 L2.0659358,16.2327326 Z" id="Shape" fill="#E78724"></path>
                                <path id="Shape" fill="#FDC168" d="M3.11813333,3.84581782 L2.93822222,3.73241938 C2.40772346,3.75025613 3.11813333,3.84581782 3.11813333,3.84581782 L3.11813333,3.84581782 Z"></path>
                                <path d="M9.7545284,4.84791843 C9.7545284,4.84791843 8.92515556,4.71041337 8.51014321,4.09142436 C8.09513086,3.47221915 6.92005926,2.23380873 5.04674568,2.21997175 C3.17354074,2.20602666 1.32021728,2.71540077 1.32021728,2.71540077 L2.93800494,3.73252749 C3.10911605,3.72701431 3.40831605,3.72928444 3.9030716,3.74571587 C5.93337284,3.81284688 6.2459358,5.81110251 6.2459358,5.81110251 L13.4013136,4.8307303" id="Shape" fill="#FBA919"></path>
                                <path d="M10.4460346,15.8846459 C10.4460346,15.8846459 9.47803457,16.84783 7.99148642,16.5380112 C6.50493827,16.2286248 5.60603457,15.5750433 5.53693827,14.4398698 C5.46784198,13.3048044 5.84830617,12.8576967 5.84830617,12.8576967 C5.84830617,12.8576967 7.50737778,13.3739893 8.30285432,14.0619471 C9.0978963,14.7496886 9.6854321,15.8503777 10.4460346,15.8846459 L10.4460346,15.8846459 Z" id="Shape" fill="#FFFFFF"></path>
                                <path d="M9.27454815,15.5405589 C9.27454815,15.5405589 8.4350716,15.9221571 7.49673086,15.6113654 C6.26842469,15.2037148 6.18661728,13.9326577 6.18661728,13.9326577 C6.18661728,13.9326577 5.43307654,16.132955 7.5457284,16.5564965 C9.24021728,16.8961513 10.2423309,15.9191303 10.2423309,15.9191303 L9.27454815,15.5405589 L9.27454815,15.5405589 Z" id="Shape" fill="#C9C9C9"></path>
                                <path d="M9.87110123,4.38113629 C9.78081975,2.49411707 11.3354864,0.99118236 11.8741333,0.927186291 C11.9039012,1.24695043 11.8441481,2.49422517 12.3826864,2.87776918 C12.5394568,1.85902094 13.0696296,0.735846692 15.1631605,0 C14.7147951,1.18327867 15.1032988,2.17446103 15.288316,2.63389227 C16.7179358,1.34272833 17.6811556,1.55612063 17.6811556,1.55612063 C17.6811556,1.55612063 16.687842,3.26163749 17.0763457,4.38070389 C14.2064593,4.15682575 9.88511605,4.68414471 9.87110123,4.38113629 L9.87110123,4.38113629 Z" id="Shape" fill="#463014"></path>
                                <path d="M3.78693333,7.25544623 C3.10216296,6.69018365 3.61256296,6.16556723 3.55845926,5.5233364 C3.52901728,5.18162766 3.50185679,4.85916099 3.38865185,4.68133407 C2.7585284,3.69123273 1.27198025,3.39081875 1.2570963,3.3876838 L0.559397531,3.25169216 L1.02123457,2.71410356 C1.0810963,2.64448621 2.9777679,0.843840059 5.91283951,1.78670106 C7.96595556,2.44557951 9.48585679,4.67982065 9.54245926,4.77008538 L8.5129679,5.25178552 C8.50090864,5.23275966 7.2993284,3.13267244 5.53791605,2.56751797 C4.11405432,2.11035686 2.8017679,2.54524906 2.23965432,2.83031263 C2.83718519,3.06770346 3.61842963,3.50000123 4.08917531,4.23952337 C4.31123951,4.58879921 4.34872099,5.02855599 4.38489877,5.45436767 C4.43259259,6.01811682 4.47724444,6.55030035 4.89421235,6.89492783 L3.78693333,7.25544623 L3.78693333,7.25544623 Z" id="Shape" fill="#463014"></path>
                                <path d="M1.95805432,15.5071556 C1.95805432,15.5071556 2.82078025,14.4426804 3.07630617,12.3713482 C3.17669136,11.5555064 2.99840988,9.94630797 2.71311605,9.32721086 C2.76493827,10.8491714 2.37610864,12.3713482 2.37610864,12.3713482 C2.37610864,12.3713482 2.11395556,15.197553 1.95805432,15.5071556 L1.95805432,15.5071556 Z" id="Shape" fill="#463014"></path>
                                <path d="M6.50721975,6.18037713 C6.50678519,6.178107 6.2304,4.97634298 5.46414815,4.36967754 C4.38326914,3.51416252 3.06348642,3.9692697 3.05077531,3.97326946 L2.85913086,3.38422456 C2.92301235,3.36357718 4.43150617,2.89063325 5.82168889,3.86300596 C7.22023704,4.84089184 7.38808889,5.72732387 7.40264691,5.8252638 L6.50721975,6.18037713 L6.50721975,6.18037713 Z" id="Shape" fill="#463014"></path>
                                <path d="M4.66769383,14.743743 C4.66769383,14.743743 4.21509136,14.0990259 4.2964642,13.3899883 C4.33698765,13.0398477 4.50005926,12.6804103 4.79121975,12.5528506 C5.33225679,12.3163246 5.57202963,12.9265573 5.57202963,12.9265573 C5.57202963,12.9265573 4.81055802,13.1135729 4.66769383,14.743743 L4.66769383,14.743743 Z" id="Shape" fill="#463014"></path>
                                <path d="M9.6373037,15.7263854 C9.65620741,15.7615183 9.66587654,15.7811928 9.66587654,15.7811928 C9.66587654,15.7811928 8.25418272,16.8353983 6.80739753,15.7656262 C6.03299753,15.1924722 6.10611358,13.7747215 6.34338765,13.1734611 C6.96036543,13.3125877 7.48369383,13.5633831 7.92108642,13.85623 C7.36831605,13.3653412 6.88442469,13.003958 6.8857284,12.9956342 L6.25745185,12.8186721 L5.03631605,12.402049 C5.0206716,12.494692 4.57523951,14.5720779 5.86090864,15.9875585 C6.4307358,16.6151956 9.10224198,18.0207309 10.370637,15.6174191 L9.6373037,15.7263854 L9.6373037,15.7263854 Z" id="Shape" fill="#463014"></path>
                                <path d="M9.50508642,15.8808624 C10.2999111,17.0845722 12.3053333,16.3967226 12.2707852,15.1241521 C12.2707852,15.1241521 10.9307951,15.8599988 9.74692346,14.5051631 C9.05574321,13.7141846 6.8409679,11.5332375 3.83745185,12.2580579 C5.91164444,12.7118678 8.65757037,14.5974817 9.50508642,15.8808624 L9.50508642,15.8808624 Z" id="Shape" fill="#463014"></path>
                                <path d="M3.55682963,19.2780591 C3.74803951,19.3879983 4.42238025,20.0828745 4.42281481,21.122162 C4.42281481,21.6433192 4.37066667,24.2614287 4.11144691,25.860898 C4.50136296,26.1129906 4.7729679,26.1666089 5.16125432,26.4235661 C5.35561481,24.5711394 5.49500247,21.8863313 5.43003457,20.802506 C5.35572346,19.5670143 4.69094321,18.7378761 4.0744,18.3842762 C3.88134321,18.2737964 3.67959506,18.1651545 3.47643457,18.0558639 C2.42043457,17.488115 1.32847407,16.9007997 1.32847407,15.8979424 C1.32847407,15.11345 1.63495309,14.8680597 1.95946667,14.6079676 L1.99444938,14.5797531 C2.20977778,14.4066826 2.45346173,14.2103704 2.59784691,13.8880118 C2.99178272,13.0066605 3.05620741,10.7616092 2.59784691,10.1916983 C2.36937284,9.90771574 1.75717531,8.95274737 1.93317531,8.31105706 C2.00020741,8.06609913 2.15523951,7.88459677 2.40761481,7.75595602 C2.67465679,7.61985627 3.03545679,7.55088754 3.47958519,7.55088754 C4.35198025,7.55088754 5.31954568,7.81508753 5.81875556,7.97237516 C7.60254815,8.5349352 9.75496296,10.1568896 10.3719407,10.6406437 C10.3896494,10.6541564 10.400079,10.6620478 10.4019259,10.663345 L10.7967309,10.9365174 L10.5497877,10.5254075 C10.5345778,10.4997875 8.97078519,7.94124194 6.17466667,7.0031374 C5.6306963,6.82066212 4.56198519,6.51441066 3.51174321,6.51441066 C2.8864,6.51441066 2.35579259,6.62305264 1.93567407,6.83709354 C1.42364444,7.09772618 1.07685926,7.51359253 0.9328,8.03928997 C0.57971358,9.32796757 1.72968889,10.7627984 1.76890864,10.8086334 C1.90297284,11.0467809 1.95979259,12.7767287 1.65005432,13.4691186 C1.60746667,13.5646803 1.49067654,13.6586205 1.34281481,13.7773159 C1.29653333,13.8146109 1.24471111,13.8533112 1.18984691,13.8947141 C0.752888889,14.2229101 0.0921283951,14.7187716 0.0921283951,15.8617284 C0.0921283951,17.4256323 1.68503704,18.2735802 2.96516543,18.9553762 C3.17517037,19.0678017 3.37561481,19.1741736 3.55682963,19.2780591 L3.55682963,19.2780591 Z" id="Shape" fill="#463014"></path>
                                <g transform="translate(0.325926, 1.405319)" id="Shape" fill="#463014">
                                    <path d="M3.46100741,5.85012714 C2.77623704,5.28486457 3.28663704,4.76024814 3.23253333,4.11801732 C3.20309136,3.77630858 3.17593086,3.4538419 3.06272593,3.27601499 C2.43260247,2.28591364 0.946054321,1.98549966 0.93117037,1.98236472 L0.233471605,1.84637307 L0.695308642,1.30878447 C0.75517037,1.23916713 2.65184198,-0.561479025 5.58691358,0.381381979 C7.64002963,1.04026043 9.15993086,3.27450157 9.21653333,3.36476629 L8.18704198,3.84646643 C8.17498272,3.82744057 6.97340247,1.72735336 5.21199012,1.16219888 C3.7881284,0.705037774 2.47584198,1.13992998 1.9137284,1.42499355 C2.51125926,1.66238437 3.2925037,2.09468214 3.76324938,2.83420429 C3.98531358,3.18348013 4.02279506,3.6232369 4.05897284,4.04904858 C4.10666667,4.61279774 4.15131852,5.14498127 4.56828642,5.48960875 L3.46100741,5.85012714 L3.46100741,5.85012714 Z"></path>
                                    <path d="M3.4387358,5.96590381 L3.39451852,5.92947362 C2.88672593,5.51014803 2.97679012,5.09709232 3.06402963,4.69744119 C3.10368395,4.51302008 3.14551111,4.3223291 3.12856296,4.12677354 C3.10085926,3.79792887 3.07424198,3.48767766 2.97472593,3.33103863 C2.3746963,2.38839383 0.924651852,2.08635833 0.910311111,2.08343959 L0.0388938272,1.91339598 L0.61654321,1.24143726 C0.627081481,1.22889749 1.84484938,0.0057293778 3.90730864,0.0057293778 C4.46953086,0.0057293778 5.04555062,0.0988047417 5.61863704,0.283009643 C7.76149136,0.970534979 9.29019259,3.28704134 9.30464198,3.30995885 L9.36645926,3.40833118 L8.14869136,3.97824212 L8.09980247,3.90105767 C7.96878025,3.67880106 6.81413333,1.78410663 5.18070123,1.25981451 C4.77948642,1.13095756 4.35686914,1.06588047 3.9248,1.06588047 C3.14225185,1.06588047 2.50767407,1.27808366 2.17001481,1.42056139 C2.73430123,1.67341072 3.41863704,2.0990062 3.85168395,2.77853203 C4.08711111,3.14867146 4.12524444,3.6010761 4.16261728,4.03813034 C4.2084642,4.58166452 4.25181235,5.09276826 4.63499259,5.40928936 L4.77959506,5.52863338 L3.4387358,5.96590381 L3.4387358,5.96590381 Z"></path>
                                </g>
                                <g transform="translate(2.716049, 3.134943)" id="Shape" fill="#463014">
                                    <path d="M3.79117037,3.04543456 C3.7907358,3.04316442 3.51435062,1.84140041 2.74809877,1.23473497 C1.66721975,0.37921995 0.347437037,0.83432713 0.334725926,0.838326884 L0.143081481,0.249281985 C0.206962963,0.228634605 1.71545679,-0.244309318 3.10563951,0.728063387 C4.50418765,1.70594927 4.67203951,2.5923813 4.68659753,2.69032123 L3.79117037,3.04543456 L3.79117037,3.04543456 Z"></path>
                                    <path d="M3.71685926,3.18596646 L3.68991605,3.06770346 C3.68709136,3.0561366 3.41602963,1.89545114 2.68323951,1.31570297 C2.26561975,0.984804373 1.76195556,0.816814692 1.18713086,0.816814692 C0.738439506,0.816814692 0.405017284,0.923402739 0.368622222,0.93594251 L0.269540741,0.968697254 L0.0124938272,0.182907684 L0.111032099,0.151233954 C0.155249383,0.137288864 0.555595062,0.0130802776 1.12194568,0.0130802776 C1.86907654,0.0130802776 2.57546667,0.23122904 3.16560988,0.643528039 C4.59914074,1.64595295 4.77416296,2.57292304 4.78915556,2.67518703 L4.80175802,2.75604693 L3.71685926,3.18596646 L3.71685926,3.18596646 Z M1.18723951,0.610773294 C1.80128395,0.610773294 2.36372346,0.798653645 2.8126321,1.15387507 C3.46328889,1.66951907 3.76933333,2.57984153 3.8618963,2.90619986 L4.5672,2.62654137 C4.50331852,2.3787728 4.22215309,1.6351428 3.04621235,0.812598735 C2.48355556,0.419109391 1.83637531,0.219770284 1.12205432,0.219770284 C0.730074074,0.219770284 0.425550617,0.281820527 0.275081481,0.319656041 L0.402301235,0.710875253 C0.549837037,0.671418218 0.833718519,0.610773294 1.18723951,0.610773294 L1.18723951,0.610773294 Z"></path>
                                </g>
                                <path d="M10.2900247,31.942038 L10.2900247,31.942038 C9.98365432,31.942038 9.67098272,31.8314502 9.45424198,31.6447589 C9.28834568,31.5024974 8.72731852,30.9897721 8.47994074,30.3615945 C8.38759506,30.12669 8.40834568,29.9388097 8.54230123,29.8035747 C8.63464691,29.7109318 8.82629136,29.6001278 9.21533827,29.6001278 L9.49215802,29.5996954 C9.82199506,29.599371 10.3773728,29.599371 10.8520296,29.599371 L11.3071309,29.599371 C11.6030716,29.599371 11.8152494,29.6630428 11.9372543,29.7871433 C12.093916,29.9473497 12.0437235,30.1511209 11.9999407,30.2583576 C11.9236741,30.4462379 11.6080691,31.0576598 11.0737679,31.6260574 C10.8824494,31.8297205 10.604,31.942038 10.2900247,31.942038 L10.2900247,31.942038 Z" id="Shape" fill="#463014"></path>
                                <path d="M10.6111704,15.9516688 L9.50497778,15.8808624 C9.50497778,15.8808624 9.78777284,16.3768319 9.97094321,17.018306 C10.1777975,17.7438831 9.78179753,18.8042504 9.78179753,18.8042504 C9.78179753,18.8042504 11.256721,17.1427308 10.6111704,15.9516688 L10.6111704,15.9516688 Z" id="Shape" fill="#463014"></path>
                                <path d="M9.23033086,34.8483459 C5.29325432,34.5472833 3.90806914,30.8455648 3.90806914,30.0745851 L4.93625679,30.0750175 L4.42216296,30.0745851 L4.93625679,30.0745851 C4.94136296,30.4078619 5.98769383,33.5743701 9.3090963,33.8285167 L9.23033086,34.8483459 L9.23033086,34.8483459 Z" id="Shape" fill="#463014"></path>
                                <path d="M8.12392099,28.2162128 C8.06242963,27.8623967 8.05601975,27.5268497 8.13109136,27.1971402 C7.83189136,26.9733702 7.29498272,26.8902402 6.89213827,26.7603022 C6.5627358,26.5528555 4.87704691,26.9729378 3.6540642,25.5002715 C2.12177778,23.6561685 2.44422716,22.5551551 2.44422716,22.5551551 C2.05137778,22.9895068 1.67058765,22.8240034 1.07175309,24.8491763 C0.472049383,26.8747816 1.35324444,28.2869111 2.99558519,29.7045538 C3.77150617,30.3742424 4.86835556,30.6501173 5.81180247,30.7557324 C5.49576296,30.4399681 6.35164444,30.4084024 6.94157037,30.1887402 C6.8945284,29.7148234 6.97329383,29.2547436 7.32844444,28.8842798 C7.54257778,28.6609422 7.81809383,28.5274369 8.10393086,28.421065 C8.11990123,28.3843105 8.13337284,28.3503667 8.14858272,28.3151256 C8.13913086,28.2829114 8.1298963,28.2503728 8.12392099,28.2162128 L8.12392099,28.2162128 Z" id="Shape" fill="#FFFFFF"></path>
                                <path d="M6.93363951,30.1764167 C6.89952593,30.0769633 6.87377778,29.9755642 6.8484642,29.8735164 C6.82119506,29.7620638 6.68539259,29.4462994 6.85280988,29.8068178 C6.80978765,29.7144991 6.78164938,29.6193698 6.76089877,29.5234838 C4.10112593,29.5201327 1.78716049,27.7030551 2.23422222,23.8828573 C1.88602469,23.4228856 1.39843951,24.8103679 1.39843951,24.8103679 C1.39843951,24.8103679 0.0669234568,28.657483 3.50587654,30.1485265 C4.65172346,30.6457933 5.66437531,31.0022038 5.90327901,30.8583207 C6.4009679,30.9589632 6.85020247,30.6136871 7.01870617,30.386674 C6.98709136,30.3169486 6.95830123,30.247115 6.93363951,30.1764167 L6.93363951,30.1764167 Z" id="Shape" fill="#C9C9C9"></path>
                                <path d="M8.07600988,27.6623008 C8.08013827,27.3398342 8.14630123,27.027529 8.30296296,26.7163049 C8.3139358,26.6949008 8.32664691,26.6743615 8.33838025,26.6534979 C7.3148642,26.6447417 6.13609877,26.5472342 5.13235556,26.147475 C4.0290963,25.7083668 2.64901728,24.2060807 2.41185185,22.4409999 C2.41185185,22.4409999 0.334074074,24.0363614 0.944641975,27.4510706 C1.5177284,30.6575763 4.21433086,31.7029175 7.2897679,31.8797715 C7.29139753,31.859016 6.94385185,31.1446815 7.05368889,30.7074111 C5.30737778,30.8336736 3.35453827,30.1623635 2.41185185,28.6188907 C1.5488,27.2062207 1.79085432,24.7943689 2.14557037,24.4409852 C3.01079506,27.157467 6.12403951,27.7096493 8.07600988,27.6623008 L8.07600988,27.6623008 Z" id="Shape" fill="#463014"></path>
                                <path d="M8.39824198,25.7175554 C7.84481975,27.3335643 6.7144,28.6413758 6.7144,28.6413758 C6.7144,28.6413758 8.26939259,28.5710018 8.35521975,28.2971808 C8.41877531,28.0953553 9.75930864,24.9728444 10.273837,21.315015 C9.78983704,22.1062097 8.44560988,25.5791856 8.39824198,25.7175554 L8.39824198,25.7175554 Z" id="Shape" fill="#463014"></path>
                                <path d="M17.2081284,21.9918383 C17.2081284,21.9918383 18.9708444,24.6743763 20.2645531,26.5780431 C20.4646716,26.8725115 18.9708444,26.8929427 18.9708444,26.8929427 L17.2081284,21.9918383 L17.2081284,21.9918383 Z" id="Shape" fill="#E78724"></path>
                                <path d="M16.3684346,16.430234 C16.3684346,16.430234 16.9000198,17.7496124 17.1907457,18.4490289 C17.5067852,19.2094147 18.7116247,19.5876617 18.7116247,19.5876617 C18.7116247,19.5876617 18.0871506,18.9358098 18.0871506,17.2844518 C18.0871506,16.5916295 17.1883556,16.316187 17.1883556,16.316187 L16.3684346,16.430234 L16.3684346,16.430234 Z" id="Shape" fill="#E78724"></path>
                                <path d="M16.9052346,17.1762422 C16.9052346,17.1762422 17.9941531,18.4660009 20.0165235,17.7436669 C22.0388938,17.0213328 22.2460741,14.4417075 22.2460741,13.7193735 C22.2460741,12.9970395 18.4091654,14.4417075 17.8905086,14.7513101 C17.3718519,15.0609127 16.3869037,16.2989988 16.9052346,17.1762422 L16.9052346,17.1762422 Z" id="Shape" fill="#E78724"></path>
                                <path d="M24.5428741,3.39427799 C24.5428741,3.39427799 22.6764049,3.03289479 21.4316938,4.013267 C20.1874173,4.99342301 19.8243358,5.76753762 19.8243358,5.76753762 L21.9217778,7.42170628 C21.9217778,7.42170628 22.9356247,6.95416743 23.2467753,5.61262822 C23.5577086,4.2713052 23.3504198,3.6523162 24.5428741,3.39427799 L24.5428741,3.39427799 Z" id="Shape" fill="#E78724"></path>
                                <path d="M17.4498568,13.4507414 C18.2534815,12.3156759 19.5773926,11.8205712 20.6352395,11.7385222 C22.4383704,11.5982065 23.2939259,12.2324378 23.2939259,12.2324378 C23.2939259,12.2324378 20.341037,12.3568626 19.4898272,13.4691186 C17.905284,15.5392617 15.5945778,15.7074676 15.2249778,15.2527928 C15.6522667,15.2739807 16.1226864,15.063291 16.6255901,14.5898065 C16.9398914,14.2936085 17.1948741,13.8110435 17.4498568,13.4507414 L17.4498568,13.4507414 Z" id="Shape" fill="#E78724"></path>
                                <path d="M22.4346765,17.4642246 C22.4346765,17.4642246 25.710558,16.3435366 25.0883654,15.2086874 C24.4662815,14.0735139 24.961037,13.4550654 24.961037,13.4550654 C24.961037,13.4550654 26.7908938,14.8139009 26.3242765,16.2583527 C26.0377877,17.1450009 25.5571556,17.7869074 22.917916,19.0176427 C21.6520198,21.3572827 22.6565235,25.5685916 22.5966617,25.5883742 C22.4962765,25.6215613 20.8193877,24.76356 20.9338963,20.8235858 C20.9686617,19.6137141 21.0658963,17.9620318 22.4346765,17.4642246 L22.4346765,17.4642246 Z" id="Shape" fill="#E78724"></path>
                                <path d="M18.1414716,5.41307291 C19.5148148,6.10751674 21.3971457,7.07459247 21.3971457,7.07459247 L20.6565333,7.44332658 C20.7272593,7.55726552 20.7614815,7.62526135 20.7614815,7.62526135 L20.0012049,7.96924022 C20.0012049,7.96924022 18.1451654,9.30699588 17.0080099,10.1670512 C17.3867358,9.00539279 18.4996642,7.18042381 18.4996642,7.18042381 C18.4996642,7.18042381 18.8155951,6.34188072 18.1414716,5.41307291 L18.1414716,5.41307291 Z" id="Shape" fill="#E78724"></path>
                                <path d="M13.5778568,33.7205233 C17.799684,33.7205233 19.2299556,31.5875732 19.2299556,31.5875732 L18.5704988,33.1865021 C18.3210568,33.8782434 15.6599802,36.0307598 13.5842667,36.0307598" id="Shape" fill="#E78724"></path>
                                <path d="M18.767684,30.1463645 C18.767684,30.1463645 18.3787457,32.508814 16.8236444,32.508814 C15.5020148,32.508814 15.1124247,30.5132609 15.1124247,30.1008538 L18.767684,30.1463645 L18.767684,30.1463645 Z" id="Shape" fill="#E78724"></path>
                                <path d="M21.3562963,26.5834482 C21.2181037,26.2048769 20.7342123,24.6743763 20.5783111,23.2814889 C20.3919901,21.613267 20.4603259,19.1733088 20.4603259,19.1733088 C20.4603259,19.1733088 20.8752296,20.77267 21.2377679,21.0311406 C21.6010667,21.2889626 22.2748642,23.0429089 22.2748642,23.0429089 C22.2748642,23.0429089 22.6359901,25.654208 22.8078617,26.5318838 C22.3323358,26.6266888 21.932316,26.347787 21.3562963,26.5834482 L21.3562963,26.5834482 Z" id="Shape" fill="#E78724"></path>
                                <path d="M25.1130272,16.2327326 C25.1130272,16.2327326 24.2313975,15.9229138 23.9722864,14.0142743 C23.7131753,12.1052024 24.2835457,10.4542768 24.2835457,10.4542768 C24.2835457,10.4542768 24.2313975,13.0854665 24.5426568,13.6015429 C24.8540247,14.1175112 25.1130272,14.2720963 25.4761086,14.942974 C25.8387556,15.6138517 25.320316,16.0262588 25.1130272,16.2327326 L25.1130272,16.2327326 Z" id="Shape" fill="#E78724"></path>
                                <path id="Shape" fill="#FDC168" d="M24.0603951,3.84581782 L24.2406321,3.73241938 C24.7712395,3.75025613 24.0603951,3.84581782 24.0603951,3.84581782 L24.0603951,3.84581782 Z"></path>
                                <path d="M17.4237827,4.84791843 C17.4237827,4.84791843 18.2535901,4.71041337 18.6681679,4.09142436 C19.0830716,3.47221915 20.2585778,2.23380873 22.132,2.21997175 C24.0052049,2.20602666 25.8585284,2.71540077 25.8585284,2.71540077 L24.2406321,3.73252749 C24.069521,3.72701431 23.770321,3.72928444 23.2751309,3.74571587 C21.2451556,3.81284688 20.9325926,5.81110251 20.9325926,5.81110251 L13.7774321,4.8307303" id="Shape" fill="#FBA919"></path>
                                <path d="M16.7326025,15.8846459 C16.7326025,15.8846459 17.7006025,16.84783 19.1868247,16.5380112 C20.6734815,16.2286248 21.5722765,15.5750433 21.6414815,14.4398698 C21.7104691,13.3048044 21.3304395,12.8576967 21.3304395,12.8576967 C21.3304395,12.8576967 19.6709333,13.3739893 18.8758914,14.0619471 C18.0808494,14.7499048 17.4933136,15.8503777 16.7326025,15.8846459 L16.7326025,15.8846459 Z" id="Shape" fill="#FFFFFF"></path>
                                <path d="M17.903763,15.5405589 C17.903763,15.5405589 18.7435654,15.9221571 19.6815802,15.6113654 C20.9102123,15.2037148 20.9920198,13.9326577 20.9920198,13.9326577 C20.9920198,13.9326577 21.7451259,16.132955 19.6324741,16.5564965 C17.9383111,16.8961513 16.9359802,15.9191303 16.9359802,15.9191303 L17.903763,15.5405589 L17.903763,15.5405589 Z" id="Shape" fill="#C9C9C9"></path>
                                <path d="M23.3915951,7.25544623 C24.0763654,6.69018365 23.5664,6.16556723 23.6205037,5.5233364 C23.6494025,5.18162766 23.676563,4.85916099 23.7898765,4.68133407 C24.4201086,3.69123273 25.9065481,3.39081875 25.9218667,3.3876838 L26.6196741,3.25169216 L26.1577284,2.71410356 C26.0978667,2.64448621 24.2011951,0.843840059 21.2656889,1.78670106 C19.2128988,2.44557951 17.6929975,4.67982065 17.6365037,4.77008538 L18.6655605,5.25178552 C18.6780543,5.23275966 19.8797432,3.13267244 21.6411556,2.56751797 C23.0649086,2.11035686 24.3771951,2.54524906 24.9389827,2.83031263 C24.3417778,3.06770346 23.5602074,3.50000123 23.0894617,4.23952337 C22.8673975,4.58879921 22.830242,5.02855599 22.7941728,5.45436767 C22.746479,6.01811682 22.7013926,6.55030035 22.284316,6.89492783 L23.3915951,7.25544623 L23.3915951,7.25544623 Z" id="Shape" fill="#463014"></path>
                                <path d="M25.2201481,15.5071556 C25.2201481,15.5071556 24.3578568,14.4426804 24.1023309,12.3713482 C24.0019457,11.5555064 24.1799012,9.94630797 24.4650864,9.32721086 C24.4132642,10.8491714 24.8024198,12.3713482 24.8024198,12.3713482 C24.8024198,12.3713482 25.0646815,15.197553 25.2201481,15.5071556 L25.2201481,15.5071556 Z" id="Shape" fill="#463014"></path>
                                <path d="M20.6714173,6.18037713 C20.6718519,6.178107 20.948237,4.97634298 21.7145975,4.36967754 C22.7953679,3.51416252 24.1152593,3.9692697 24.1275358,3.97326946 L24.3197235,3.38422456 C24.2556247,3.36357718 22.7473481,2.89063325 21.3567309,3.86300596 C19.9581827,4.84089184 19.7907654,5.72732387 19.7757728,5.8252638 L20.6714173,6.18037713 L20.6714173,6.18037713 Z" id="Shape" fill="#463014"></path>
                                <path d="M22.5109432,14.743743 C22.5109432,14.743743 22.9635457,14.0990259 22.8817383,13.3899883 C22.8416494,13.0398477 22.6785778,12.6804103 22.3874173,12.5528506 C21.8463802,12.3163246 21.6064988,12.9265573 21.6064988,12.9265573 C21.6064988,12.9265573 22.368079,13.1135729 22.5109432,14.743743 L22.5109432,14.743743 Z" id="Shape" fill="#463014"></path>
                                <path d="M17.541442,15.7263854 C17.5225383,15.7615183 17.5127605,15.7811928 17.5127605,15.7811928 C17.5127605,15.7811928 18.9240198,16.8353983 20.3708049,15.7656262 C21.1457481,15.1924722 21.0725235,13.7747215 20.8348148,13.1734611 C20.218163,13.3125877 19.6949432,13.5633831 19.2573333,13.85623 C19.8102123,13.3653412 20.2941037,13.003958 20.2923654,12.9956342 L20.9210765,12.8186721 L22.1421037,12.4022652 C22.1577481,12.4949082 22.6030716,14.5722941 21.3169679,15.9877747 C20.7472494,16.6154118 18.0757432,18.0209471 16.8076741,15.6176353 L17.541442,15.7263854 L17.541442,15.7263854 Z" id="Shape" fill="#463014"></path>
                                <path d="M17.6732247,15.8808624 C16.8784,17.0845722 14.873521,16.3967226 14.9081778,15.1241521 C14.9081778,15.1241521 16.2477333,15.8599988 17.4316049,14.5051631 C18.1227852,13.7141846 20.3379951,11.5332375 23.3414025,12.2580579 C21.2673185,12.7118678 18.5211753,14.5974817 17.6732247,15.8808624 L17.6732247,15.8808624 Z" id="Shape" fill="#463014"></path>
                                <path d="M23.6221333,19.2780591 C23.4308148,19.3879983 22.7561481,20.0828745 22.7561481,21.122162 C22.7557136,21.6433192 22.8079704,24.2614287 23.067516,25.860898 C22.6774914,26.1129906 22.4058864,26.1666089 22.0176,26.4235661 C21.8232395,24.5711394 21.6834173,21.8863313 21.7488198,20.802506 C21.8230222,19.5670143 22.4875852,18.7378761 23.1040198,18.3842762 C23.2970765,18.2737964 23.4989333,18.1651545 23.7025284,18.0558639 C24.7585284,17.488115 25.8504889,16.9007997 25.8504889,15.8979424 C25.8504889,15.11345 25.543684,14.8680597 25.2191704,14.6079676 L25.1846222,14.5797531 C24.9692938,14.4066826 24.7251753,14.2103704 24.5812247,13.8880118 C24.1871802,13.0066605 24.1225383,10.7616092 24.5807901,10.1916983 C24.8092642,9.90771574 25.4218963,8.95274737 25.2458963,8.31105706 C25.1784296,8.06609913 25.0232889,7.88459677 24.7710222,7.75595602 C24.5038716,7.61985627 24.1436148,7.55088754 23.6990519,7.55088754 C22.8272,7.55088754 21.8590914,7.81508753 21.360316,7.97237516 C19.5765235,8.5349352 17.4241086,10.1568896 16.8066963,10.6406437 C16.7890963,10.6541564 16.778884,10.6620478 16.7769284,10.663345 L16.3819062,10.9365174 L16.6288494,10.5254075 C16.6444938,10.4997875 18.2079605,7.94124194 21.0039704,7.0031374 C21.5480494,6.82066212 22.6166519,6.51441066 23.6670025,6.51441066 C24.2923457,6.51441066 24.8224099,6.62305264 25.242963,6.83709354 C25.7551012,7.09772618 26.1016691,7.51359253 26.2459457,8.03928997 C26.5990321,9.32796757 25.4489481,10.7627984 25.4097284,10.8086334 C25.2756642,11.0467809 25.2189531,12.7767287 25.5282568,13.4691186 C25.5708444,13.5646803 25.6876346,13.6586205 25.8358222,13.7773159 C25.8821037,13.8146109 25.9334914,13.8533112 25.9887901,13.8947141 C26.4258568,14.2229101 27.0862914,14.7187716 27.0862914,15.8617284 C27.0862914,17.4256323 25.4933827,18.2735802 24.2136889,18.9553762 C24.0034667,19.0678017 23.8028049,19.1741736 23.6221333,19.2780591 L23.6221333,19.2780591 Z" id="Shape" fill="#463014"></path>
                                <path d="M21.7218765,7.07145753 C21.4685235,6.64445673 20.8205827,5.81996683 19.3271901,5.09547079 C17.6606222,4.28719612 15.7317926,3.87695105 13.5933926,3.87597813 L13.5933926,3.87554573 L13.5892642,3.87554573 L13.5851358,3.87554573 L13.5851358,3.87576193 C11.4464099,3.87684295 9.51725432,4.28708802 7.85112099,5.09525459 C6.3577284,5.81985873 5.71000494,6.64424053 5.45643457,7.07124132 L5.34768395,7.21447577 L6.62650864,7.49770162 L6.6670321,7.44678582 L6.68843457,7.40008599 C6.70820741,7.31598305 6.87964444,6.86195688 8.30546173,6.17010749 C9.82970864,5.43036914 11.6075259,5.05536515 13.5890469,5.05471654 C15.5707852,5.05536515 17.347842,5.43036914 18.8719802,6.17010749 C20.2979062,6.86195688 20.4698864,7.31598305 20.489442,7.40008599 L20.5107358,7.44678582 L20.5508247,7.49770162 L21.830084,7.21447577 L21.7218765,7.07145753 L21.7218765,7.07145753 Z" id="Shape" fill="#463014"></path>
                                <g transform="translate(17.382716, 1.405319)" id="Shape" fill="#463014">
                                    <path d="M6.00887901,5.85012714 C6.69364938,5.28486457 6.18368395,4.76024814 6.23778765,4.11801732 C6.26668642,3.77630858 6.29384691,3.4538419 6.40716049,3.27601499 C7.03739259,2.28591364 8.5238321,1.98549966 8.53915062,1.98236472 L9.23695802,1.84637307 L8.77501235,1.30878447 C8.71515062,1.23916713 6.81847901,-0.561479025 3.88297284,0.381381979 C1.83018272,1.04026043 0.310281481,3.27450157 0.253787654,3.36476629 L1.28284444,3.84646643 C1.29533827,3.82744057 2.49702716,1.72735336 4.25843951,1.16219888 C5.68219259,0.705037774 6.99447901,1.13992998 7.55626667,1.42499355 C6.95906173,1.66238437 6.17749136,2.09468214 5.70674568,2.83420429 C5.48468148,3.18348013 5.44752593,3.6232369 5.41145679,4.04904858 C5.36376296,4.61279774 5.31867654,5.14498127 4.9016,5.48960875 L6.00887901,5.85012714 L6.00887901,5.85012714 Z"></path>
                                    <path d="M4.69094321,5.52906578 L4.83500247,5.40972176 C5.21850864,5.09320066 5.26153086,4.58198882 5.30781235,4.03856274 C5.3449679,3.6012923 5.38331852,3.14888766 5.61874568,2.77896444 C6.05135802,2.09965481 6.73623704,1.67395123 7.30041481,1.42088569 C6.96264691,1.27851606 6.32796049,1.06631288 5.5453037,1.06631288 C5.11301728,1.06631288 4.69116049,1.13138996 4.28983704,1.26024691 C2.65597037,1.78453903 1.5014321,3.67923346 1.3707358,3.90149008 L1.32173827,3.97856643 L0.10397037,3.40876359 L0.165896296,3.31039125 C0.180237037,3.28747374 1.7085037,0.970967385 3.85146667,0.283442049 C4.42455309,0.0992371476 5.0004642,0.00626988514 5.56322963,0.00626988514 C7.62558025,0.00626988514 8.84345679,1.2296542 8.85388642,1.24197777 L9.4315358,1.91393649 L8.56000988,2.0839801 C8.54556049,2.08689884 7.09562469,2.38871814 6.49516049,3.33157914 C6.39564444,3.48832627 6.36957037,3.79825318 6.34132346,4.12731405 C6.32491852,4.3229777 6.36620247,4.51366869 6.4064,4.6979817 C6.49353086,5.09763282 6.58348642,5.51101284 6.07547654,5.93001413 L6.0313679,5.96644432 L4.69094321,5.52906578 L4.69094321,5.52906578 Z"></path>
                                </g>
                                <g transform="translate(19.555556, 3.134943)" id="Shape" fill="#463014">
                                    <path d="M1.11586173,3.04543456 C1.1162963,3.04316442 1.39268148,1.84140041 2.15904198,1.23473497 C3.23981235,0.37921995 4.5597037,0.83432713 4.57198025,0.838326884 L4.7641679,0.249281985 C4.70006914,0.228634605 3.19179259,-0.244309318 1.80117531,0.728063387 C0.40262716,1.70594927 0.235209877,2.5923813 0.220217284,2.69032123 L1.11586173,3.04543456 L1.11586173,3.04543456 Z"></path>
                                    <path d="M0.105925926,2.75604693 L0.117985185,2.67518703 C0.133195062,2.57292304 0.308325926,1.64616915 1.74163951,0.643528039 C2.33134815,0.23122904 3.03795556,0.0130802776 3.78508642,0.0130802776 C4.35176296,0.0130802776 4.75210864,0.137072661 4.79643457,0.151233954 L4.8948642,0.182907684 L4.63792593,0.968697254 L4.5387358,0.93594251 C4.50168889,0.923510841 4.16837531,0.816814692 3.71990123,0.816814692 C3.14518519,0.816814692 2.64184691,0.98458817 2.22422716,1.31570297 C1.4913284,1.89566734 1.22004938,3.0562447 1.21755062,3.06770346 L1.19060741,3.18575026 L0.105925926,2.75604693 L0.105925926,2.75604693 Z M4.50483951,0.710875253 L4.63249383,0.319656041 C4.48191605,0.281604324 4.17706667,0.219770284 3.78508642,0.219770284 C3.07087407,0.219770284 2.42347654,0.419325594 1.86114568,0.812598735 C0.68477037,1.63535901 0.403604938,2.3787728 0.339832099,2.62654137 L1.04567901,2.90619986 C1.13802469,2.57962533 1.44374321,1.66930287 2.09472593,1.15387507 C2.54396049,0.798653645 3.10574815,0.610773294 3.71979259,0.610773294 C4.07287901,0.610773294 4.3573037,0.671418218 4.50483951,0.710875253 L4.50483951,0.710875253 Z"></path>
                                </g>
                                <path d="M16.1053037,31.6260574 C15.5711111,31.057768 15.2550716,30.4462379 15.1786963,30.2583576 C15.1350222,30.1513371 15.0852642,29.9473497 15.2419259,29.7871433 C15.3640395,29.6630428 15.5756741,29.599371 15.8716148,29.599371 L16.327042,29.599371 C16.8016988,29.599371 17.3567506,29.599371 17.6868049,29.5996954 L17.9636247,29.6001278 C18.3524543,29.6001278 18.5439901,29.7108237 18.6362272,29.8035747 C18.7702914,29.9385935 18.7912593,30.1264738 18.6989136,30.3615945 C18.4515358,30.9898802 17.8904,31.5026055 17.7245037,31.6447589 C17.5072198,31.8314502 17.1953086,31.942038 16.8889383,31.942038 L16.8889383,31.942038 C16.5748543,31.942038 16.2966222,31.8297205 16.1053037,31.6260574 L16.1053037,31.6260574 Z" id="Shape" fill="#463014"></path>
                                <path d="M16.567684,15.9516688 L17.6732247,15.8808624 C17.6732247,15.8808624 17.3908642,16.3768319 17.2076938,17.018306 C17.0008395,17.7438831 17.3968395,18.8042504 17.3968395,18.8042504 C17.3968395,18.8042504 15.9218074,17.1427308 16.567684,15.9516688 L16.567684,15.9516688 Z" id="Shape" fill="#463014"></path>
                                <path d="M13.5894815,12.0220724 C12.8845037,12.0220724 11.965284,12.0028303 11.2756247,11.5096714 C11.2756247,11.5096714 12.1786568,13.0848179 13.5882864,13.0848179 L13.5894815,12.8854788 L13.5906765,13.0848179 C15.0004148,13.0848179 15.9033383,11.5096714 15.9033383,11.5096714 C15.213679,12.0028303 14.2938074,12.0220724 13.5894815,12.0220724 L13.5894815,12.0220724 Z" id="Shape" fill="#E78724"></path>
                                <path d="M15.5305877,12.0145053 C14.823437,12.4403169 14.1919012,12.5878754 13.5894815,12.6009557 C12.9869531,12.5878754 12.3556346,12.4403169 11.6483753,12.0145053 C11.6483753,12.0145053 12.6781926,13.2649149 13.5842667,13.274536 L13.5842667,13.2752927 C13.5858963,13.2752927 13.5875259,13.2748603 13.5893728,13.2748603 C13.5910025,13.2748603 13.5926321,13.2752927 13.594479,13.2752927 L13.594479,13.274536 C14.5003358,13.2649149 15.5305877,12.0145053 15.5305877,12.0145053 L15.5305877,12.0145053 Z" id="Shape" fill="#463014"></path>
                                <path d="M17.9484148,34.8483459 L17.8695407,33.8284086 C21.1901827,33.574262 22.2365136,30.4077538 22.2419457,30.074477 L23.2701333,30.074477 C23.2705679,30.8453486 21.8849481,34.5472833 17.9484148,34.8483459 L17.9484148,34.8483459 Z" id="Shape" fill="#463014"></path>
                                <path d="M19.0546074,28.2162128 C19.1164247,27.8623967 19.1224,27.5268497 19.047437,27.1971402 C19.3470716,26.9733702 19.8835457,26.8902402 20.2863901,26.7603022 C20.6157926,26.5528555 22.301916,26.9729378 23.5248988,25.5002715 C25.0571852,23.6561685 24.7343012,22.5551551 24.7343012,22.5551551 C25.1274765,22.9895068 25.5079407,22.8240034 26.1072099,24.8491763 C26.7069136,26.8747816 25.825284,28.2869111 24.1829432,29.7045538 C23.4071309,30.3742424 22.3101728,30.6501173 21.3667259,30.7557324 C21.6827654,30.4399681 20.826884,30.4084024 20.237284,30.1887402 C20.2844346,29.7148234 20.2052346,29.2547436 19.8501926,28.8842798 C19.6364938,28.6609422 19.3605432,28.5274369 19.0749235,28.421065 C19.0588444,28.3843105 19.0450469,28.3503667 19.0302716,28.3151256 C19.0397235,28.2829114 19.0486321,28.2503728 19.0546074,28.2162128 L19.0546074,28.2162128 Z" id="Shape" fill="#FFFFFF"></path>
                                <path d="M20.244563,30.1764167 C20.2791111,30.0769633 20.3044247,29.9755642 20.3297383,29.8735164 C20.357442,29.7620638 20.4932444,29.4462994 20.3256099,29.8068178 C20.3686321,29.7144991 20.3967704,29.6193698 20.417521,29.5234838 C23.0772938,29.5201327 25.3912593,27.7030551 24.943763,23.8828573 C25.2919605,23.4228856 25.7798716,24.8103679 25.7798716,24.8103679 C25.7798716,24.8103679 27.1114963,28.657483 23.6725432,30.1485265 C22.5266963,30.6457933 21.5141531,31.0022038 21.2751407,30.8583207 C20.7770173,30.9589632 20.3277827,30.6136871 20.1597136,30.386674 C20.1911111,30.3169486 20.2205531,30.247115 20.244563,30.1764167 L20.244563,30.1764167 Z" id="Shape" fill="#C9C9C9"></path>
                                <path d="M19.1021926,27.6623008 C19.0984988,27.3398342 19.0319012,27.027529 18.8756741,26.7163049 C18.8645926,26.6949008 18.8518815,26.6743615 18.8402568,26.6534979 C19.8636642,26.6447417 21.0425383,26.5472342 22.0462815,26.147475 C23.1494321,25.7083668 24.5295111,24.2060807 24.7667852,22.4409999 C24.7667852,22.4409999 26.844563,24.0363614 26.2339951,27.4510706 C25.6604741,30.6575763 22.9641975,31.7029175 19.8888691,31.8797715 C19.8872395,31.859016 20.2348938,31.1446815 20.1249481,30.7074111 C21.8708247,30.8336736 23.8236642,30.1623635 24.7668938,28.6188907 C25.6294025,27.2062207 25.3874568,24.7943689 25.0327407,24.4409852 C24.167842,27.157467 21.0542716,27.7096493 19.1021926,27.6623008 L19.1021926,27.6623008 Z" id="Shape" fill="#463014"></path>
                                <g transform="translate(6.301235, 27.565874)" id="Shape" fill="#463014">
                                    <path d="M14.0428444,0.900701431 C13.6754173,0.505482464 12.9998815,0.0343762668 11.4422815,0.0343762668 C11.4422815,0.0343762668 8.48917531,0.0326466433 7.29346173,0.0318899331 L7.29346173,0.0318899331 L7.28835556,0.0318899331 L7.28324938,0.0318899331 L7.28324938,0.0318899331 C6.08764444,0.0327547448 3.13377778,0.0343762668 3.13377778,0.0343762668 C1.57661235,0.0343762668 0.901076543,0.505590566 0.533432099,0.900701431 C-0.00206419753,1.47590934 -0.0860444444,2.27607641 0.284424691,3.27623119 C1.26882963,5.93833794 2.6521679,8.64292857 7.2830321,8.64671212 L7.2830321,8.64714452 C7.28477037,8.64714452 7.28629136,8.64671212 7.28813827,8.64671212 C7.2897679,8.64671212 7.29139753,8.64714452 7.29324444,8.64714452 L7.29324444,8.64671212 C11.9236741,8.64271236 13.3070123,5.93833794 14.2917432,3.27623119 C14.6622123,2.27607641 14.5780148,1.47590934 14.0428444,0.900701431 L14.0428444,0.900701431 Z M13.3218963,3.08953995 C12.8528889,4.42632271 11.5924247,7.66201585 7.28802963,7.66763712 C2.98309136,7.66201585 1.72306173,4.42643081 1.25405432,3.08953995 C0.994508642,2.34785578 1.01428148,1.79902463 1.31478519,1.4580726 C1.52000988,1.22500584 1.99151605,0.946860758 3.06609383,0.946860758 L4.18869136,0.946428352 C5.01686914,0.945671642 6.05668148,0.94480683 7.28813827,0.944374424 C8.51916049,0.94480683 9.55951605,0.945671642 10.3874765,0.946428352 L11.5096395,0.946860758 C12.5845432,0.946860758 13.0559407,1.22489773 13.2612741,1.4580726 C13.5614519,1.79934893 13.581442,2.34785578 13.3218963,3.08953995 L13.3218963,3.08953995 Z"></path>
                                </g>
                                <path d="M18.7801778,25.7175554 C19.3336,27.3335643 20.4639111,28.6413758 20.4639111,28.6413758 C20.4639111,28.6413758 18.9090272,28.5710018 18.8230914,28.2971808 C18.7599704,28.0953553 17.4193284,24.9728444 16.9048,21.315015 C17.3884741,22.1062097 18.7327012,25.5791856 18.7801778,25.7175554 L18.7801778,25.7175554 Z" id="Shape" fill="#463014"></path>
                            </g>
                        </g>
                    </g>
                </g>
            </g>
            <g id="jasmine" sketch:type="MSLayerGroup" transform="translate(533.000000, 234.000000)" fill="#8A4182">
                <circle id="Oval-51" fill-opacity="0.05" sketch:type="MSShapeGroup" cx="32" cy="32" r="32"></circle>
                <g transform="translate(15.644444, 14.933333)" sketch:type="MSShapeGroup">
                    <path d="M15.3723749,19.5162757 L17.9515132,19.5162757 L18.5921911,20.3982984 L18.5921911,27.3078881 L14.731896,27.3078881 L14.731896,20.3977584 L15.3723749,19.5162757" id="path36"></path>
                    <path d="M13.7097899,16.434241 L14.5066655,18.8870228 L13.8657602,19.7691876 L7.29434316,21.9043447 L6.10137445,18.2329306 L12.6737578,16.0975178 L13.7097899,16.434241" id="path38"></path>
                    <path d="M16.1270464,13.9004898 L14.0407153,15.4169947 L13.003717,15.0795042 L8.94237702,9.48946697 L12.0652801,7.22073469 L16.1270464,12.8110845 L16.1270464,13.9004898" id="path40"></path>
                    <path d="M19.2837128,15.4169947 L17.196927,13.9010582 L17.1972396,12.8108856 L21.2584659,7.22073469 L24.3817385,9.48946697 L20.3197164,15.0800441 L19.2837128,15.4169947" id="path42"></path>
                    <path d="M18.8166543,18.8877049 L19.6139846,16.4344683 L20.6508692,16.0980862 L27.2223432,18.2329306 L26.029545,21.9043447 L19.4576732,19.7688466 L18.8166543,18.8877049" id="path44"></path>
                    <path d="M16.6628251,33.3051308 C7.48174633,33.3051308 0.0121070295,25.8368556 0.0121070295,16.6570558 C0.0121070295,7.47395918 7.48174633,0.0034388511 16.6628251,0.0034388511 C25.8431081,0.0034388511 33.3116674,7.47395918 33.3116674,16.6570558 C33.3116674,25.8368556 25.8431081,33.3051308 16.6628251,33.3051308 L16.6628251,33.3051308 L16.6628251,33.3051308 Z M16.6628251,29.9342041 C23.9944556,29.9342041 29.9404565,23.9906757 29.9404565,16.6570558 C29.9404565,9.32096327 23.9944556,3.37490552 16.6628251,3.37490552 C9.32829569,3.37490552 3.38334633,9.32096327 3.38334633,16.6570558 C3.38334633,23.9906757 9.32829569,29.9342041 16.6628251,29.9342041 L16.6628251,29.9342041 Z" id="path46"></path>
                    <path d="M26.7471565,12.956312 L21.7516995,14.5797055 L22.0821986,15.5973781 L27.0773998,13.9739846 L26.7471565,12.956312" id="path48"></path>
                    <path d="M20.3761022,20.9762528 L19.5105064,21.6050509 L22.5975432,25.8547604 L23.4633663,25.2261043 L20.3761022,20.9762528" id="path50"></path>
                    <path d="M13.0012729,21.0152169 L9.91454875,25.2647559 L10.7803719,25.8936961 L13.867096,21.6439014 L13.0012729,21.0152169" id="path52"></path>
                    <path d="M6.55621224,13.0201439 L6.22579834,14.0376175 L11.2208859,15.66013 L11.5511577,14.6426564 L6.55621224,13.0201439" id="path54"></path>
                    <path d="M16.0940789,6.04186243 L17.1638344,6.04186243 L17.1638344,11.2943807 L16.0940789,11.2943807 L16.0940789,6.04186243 L16.0940789,6.04186243 Z" id="path56"></path>
                </g>
            </g>
            <g id="jest" sketch:type="MSLayerGroup" transform="translate(464.000000, 216.000000)">
                <circle id="Oval-51" fill-opacity="0.049999997" fill="#C54429" sketch:type="MSShapeGroup" cx="32" cy="32" r="32"></circle>
                <g transform="translate(19.200000, 16.355556)" sketch:type="MSShapeGroup">
                    <path d="M2.99163515,18.7683628 C3.1227571,20.0441627 3.08349544,20.9691289 3.32985486,21.8094734 C4.00959105,24.1293422 6.07592315,25.1750674 7.83040978,23.6937363 C10.8985136,21.1034394 14.7404617,19.4215458 17.0207848,15.8769212 C17.6796913,14.8525772 18.8660828,14.7750324 19.2583996,15.9734381 C20.2715602,19.0673996 22.3973842,19.4224493 25.0778166,18.7286117 C25.5270779,22.5007512 24.8239645,23.8852643 21.3233831,24.5694653 C17.2987633,25.3560555 13.604571,26.8456681 9.96387632,28.6466645 C6.19940256,30.5089438 3.44973778,30.3332258 1.75414364,28.3676538 C0.0245327089,26.3626319 0.456261099,22.2702249 2.99163515,18.7683628" id="Fill-3" fill="#C43F27"></path>
                    <path d="M18.1307808,4.3140457 C16.7879422,6.96065661 15.6907137,9.12302671 14.3030688,11.8580236 C13.0959976,8.30737607 12.0919781,5.36202954 11.093653,2.41457499 C10.7082294,1.27654887 11.0794169,0.771980786 12.317358,0.783123143 C16.1780378,0.818055937 20.0394669,0.819561661 23.9001467,0.783424287 C25.4318009,0.76911991 25.4637198,1.42350752 25.0174556,2.64434846 C24.1351172,5.05862617 23.3927422,7.5240985 22.5529623,9.95463802 C22.4082037,10.3735304 22.510254,11.0541176 21.8955543,11.1283498 C21.25478,11.205744 21.1918415,10.5423221 20.9836948,10.1244837 C20.10795,8.36534644 19.2495882,6.597476 18.1307808,4.3140457" id="Fill-5" fill="#C44027"></path>
                    <path d="M15.5576586,15.2381028 C15.2880719,16.3809472 14.8074912,17.3003422 13.4436731,17.3206695 C11.9485831,17.3431048 11.1960181,16.41588 11.2214932,15.102437 C11.2435217,13.959442 11.9258054,13.0343252 13.2818311,13.0039096 C14.7902581,12.9700308 15.3324286,13.9377596 15.5576586,15.2381028" id="Fill-7" fill="#C6462A"></path>
                    <path d="M5.82715109,15.2587462 C5.69393119,16.5133154 5.12688494,17.3375487 3.77895128,17.3292672 C2.33196436,17.3203834 1.51795928,16.4351683 1.56096728,15.1039578 C1.59813099,13.9574996 2.33900748,13.0495481 3.64752963,13.0248542 C5.1211905,12.9971489 5.73349255,13.9007338 5.82715109,15.2587462" id="Fill-9" fill="#C54429"></path>
                    <path d="M24.9672846,15.1987582 C24.7768206,16.5164172 24.2325521,17.3270989 22.8414606,17.2491024 C21.4316373,17.1700519 20.989569,16.2931183 21.0276319,15.0474329 C21.0679425,13.7276659 21.8100178,13.0052196 23.0953127,13.0576188 C24.4397997,13.1124271 24.8959542,14.0727778 24.9672846,15.1987582" id="Fill-11" fill="#C54529"></path>
                </g>
            </g>
        </g>
    </g>
</svg>