<?xml version="1.0" encoding="UTF-8" standalone="no"?>
<svg width="1440px" height="800px" viewBox="0 0 1440 800" version="1.1" xmlns="http://www.w3.org/2000/svg" xmlns:xlink="http://www.w3.org/1999/xlink" xmlns:sketch="http://www.bohemiancoding.com/sketch/ns">
    <!-- Generator: Sketch 3.4.4 (17249) - http://www.bohemiancoding.com/sketch -->
    <title>bg</title>
    <desc>Created with Sketch.</desc>
    <defs>
        <rect id="path-1" x="0" y="0" width="1440" height="800"></rect>
    </defs>
    <g id="Title-images" stroke="none" stroke-width="1" fill="none" fill-rule="evenodd" sketch:type="MSPage">
        <g id="bg" sketch:type="MSArtboardGroup">
            <g id="title-image" sketch:type="MSLayerGroup">
                <mask id="mask-2" sketch:name="Mask" fill="white">
                    <use xlink:href="#path-1"></use>
                </mask>
                <use id="Mask" sketch:type="MSShapeGroup" xlink:href="#path-1"></use>
                <rect id="Rectangle-144" fill-opacity="0.1" fill="#000000" sketch:type="MSShapeGroup" mask="url(#mask-2)" x="0" y="0" width="1440" height="800"></rect>
                <path d="M748,-5.68434189e-14 L333,-415 L-145.5,63.5 L-2.84217094e-12,209 L-2.72848411e-12,800 L591,800 L1171.5,1380.5 L1650,902 L1440,692 L1440,-5.68434189e-14 L748,-5.68434189e-14 Z M748,-5.68434189e-14 L1440,692 L1440,800 L591,800 L-2.84217094e-12,209 L-2.72848411e-12,-5.68434189e-14 L748,-5.68434189e-14 Z" id="Rectangle-65-Copy-5" fill-opacity="0.05" fill="#000000" sketch:type="MSShapeGroup" mask="url(#mask-2)"></path>
                <path d="M-99.7061505,360.599306 L-274.849306,-293.043849 L1524.20615,-775.099306 L1699.34931,-121.456151 L-99.7061505,360.599306 L-99.7061505,360.599306 Z" id="Rectangle-65-Copy" fill-opacity="0.05" fill="#000000" sketch:type="MSShapeGroup" mask="url(#mask-2)"></path>
                <path d="M425.150694,-81.4561505 L600.293849,-735.099306 L2399.34931,-253.043849 L2224.20615,400.599306 L425.150694,-81.4561505 L425.150694,-81.4561505 Z" id="Rectangle-65-Copy-2" fill-opacity="0.1" fill="#000000" sketch:type="MSShapeGroup" mask="url(#mask-2)"></path>
                <path d="M-194.849306,1228.54385 L-19.7061505,574.900694 L1779.34931,1056.95615 L1604.20615,1710.59931 L-194.849306,1228.54385 L-194.849306,1228.54385 Z" id="Rectangle-65-Copy-3" fill-opacity="0.05" fill="#000000" sketch:type="MSShapeGroup" mask="url(#mask-2)"></path>
            </g>
            <g id="Rectangle-65-Copy-4-+-Rectangle-152" sketch:type="MSLayerGroup" transform="translate(-146.000000, -415.000000)"></g>
        </g>
    </g>
</svg>