<svg width="756" height="466" xmlns="http://www.w3.org/2000/svg" xmlns:xlink="http://www.w3.org/1999/xlink"><defs><rect id="a" x="0" y="0" width="168.75" height="248" rx="4"/></defs><g transform="rotate(15 218.49 296)" fill="none" fill-rule="evenodd"><path stroke-opacity=".05" stroke="#000" stroke-linecap="square" d="M103.5 359.5h652M76.5 207.5h629M103.5 283.5h580M.794 435l728.706-.5M103.5 130.5h652M76.5 321.5h629M.794 473l704.706-.5M128.5 169.5h601M49.5 245.5h680M76.5 397.5h679M76.5 92.5h586M103.5 340.5h602M.794 492l728.706-.5M.794 512l728.706-.5M103.5 188.5h580M76.5 264.5h679M.794 416l754.706-.5M49.5 111.5h680M103.5 302.5h626M.794 454l754.706-.5M76.5 149.5h629M49.5 226.5h706M76.5 378.5h653M103.5 73.5h602M76.5 53.5h653M184 36.036 184.5 531M546 36.036 546.5 531M336 18.018 336.5 531M260 36.036 260.5 531M622 36.036 622.5 531M413 36.036 413.5 531M222 18.018 222.5 531M584 18.018 584.5 531M374 52.719 374.5 531M298 0l.5 531M146 18.018 146.5 531M508 18.018 508.5 531M451 18.018 451.5 531M203 36.036 203.5 531M565 36.036 565.5 531M355 36.036 355.5 531M279 18.018 279.5 531M432 0l.5 531M241 36.036 241.5 531M603 36.036 603.5 531M394 18.018 394.5 531M317 0l.5 531M165 18.018 165.5 531M527 18.018 527.5 531M470 36.036 470.5 531M490 18.018 490.5 531"/><g transform="translate(300 112)"><mask id="b" fill="#fff"><use xlink:href="#a"/></mask><use stroke="#579B9B" stroke-width="2" fill-opacity=".5" fill="#FFF" xlink:href="#a"/><g mask="url(#b)" fill="#579B9B" fill-opacity=".2"><g transform="translate(23 120)"><circle cx="13" cy="13" r="13"/><rect x="32.164" y="4.789" width="77" height="6" rx="2"/><rect x="32.164" y="16.789" width="58" height="6" rx="2"/></g></g><g mask="url(#b)" fill="#579B9B" fill-opacity=".2"><g transform="translate(23 158)"><circle cx="13" cy="13" r="13"/><rect x="32.164" y="4.789" width="77" height="6" rx="2"/><rect x="32.164" y="16.789" width="58" height="6" rx="2"/></g></g><g mask="url(#b)" fill="#579B9B" fill-opacity=".2"><g transform="translate(23 196)"><circle cx="13" cy="13" r="13"/><rect x="32.164" y="4.789" width="77" height="6" rx="2"/><rect x="32.164" y="15.789" width="58" height="6" rx="2"/></g></g><g mask="url(#b)"><g transform="translate(17.164 18.79)"><rect fill-opacity=".2" fill="#579B9B" width="134" height="76" rx="2"/><circle fill="#FFF" cx="124.836" cy="67.211" r="3"/><circle fill="#FFF" cx="114.836" cy="67.211" r="3"/><circle fill="#FFF" cx="104.836" cy="67.211" r="3"/></g></g></g><rect stroke="#C4C7C7" stroke-width="2" opacity=".5" x="165.7" y="150" width="113.3" height="171" rx="4"/><rect stroke="#C4C7C7" stroke-width="2" opacity=".5" x="490.7" y="188" width="113.3" height="171" rx="4"/><rect stroke="#C4C7C7" stroke-width="2" opacity=".5" x="431.7" y="379" width="113.3" height="171" rx="4"/><rect stroke="#C4C7C7" stroke-width="2" opacity=".5" x="298.7" y="378" width="113.3" height="171" rx="4"/><rect stroke="#C4C7C7" stroke-width="2" opacity=".5" x="165" y="340" width="114" height="152" rx="4"/><path stroke-opacity=".05" stroke="#000" stroke-linecap="square" d="M641 18.018 641.5 531"/></g></svg>
