<?xml version="1.0" encoding="UTF-8"?>
<svg width="778px" height="570px" viewBox="0 0 778 570" version="1.1" xmlns="http://www.w3.org/2000/svg" xmlns:xlink="http://www.w3.org/1999/xlink">
    <title>sketch-illustration-background</title>
    <g id="sketch-illustration-background" stroke="none" stroke-width="1" fill="none" fill-rule="evenodd">
        <rect id="Rectangle-Copy-4" stroke="#CCD9D9" stroke-width="2" transform="translate(260.350187, 288.500000) rotate(-360.000000) translate(-260.350187, -288.500000) " x="203.700375" y="203" width="113.299625" height="171" rx="4"></rect>
        <rect id="Rectangle-Copy-12" stroke="#CCD9D9" stroke-width="2" transform="translate(526.700375, 251.000000) rotate(-360.000000) translate(-526.700375, -251.000000) " x="470.700375" y="166" width="112" height="170" rx="4"></rect>
        <rect id="Rectangle-Copy-13" stroke="#CCD9D9" stroke-width="2" transform="translate(527.350187, 441.500000) rotate(-360.000000) translate(-527.350187, -441.500000) " x="470.700375" y="356" width="113.299625" height="171" rx="4"></rect>
        <rect id="Rectangle-Copy-14" stroke="#CCD9D9" stroke-width="2" transform="translate(260.350187, 479.500000) rotate(-360.000000) translate(-260.350187, -479.500000) " x="203.700375" y="394" width="113.299625" height="171" rx="4"></rect>
        <rect id="Rectangle-Copy-9" stroke="#CCD9D9" stroke-width="2" transform="translate(393.350187, 517.500000) rotate(-360.000000) translate(-393.350187, -517.500000) " x="336.700375" y="432" width="113.299625" height="171" rx="4"></rect>
        <rect id="Rectangle-Copy-10" stroke="#CCD9D9" stroke-width="2" transform="translate(393.350187, 326.500000) rotate(-360.000000) translate(-393.350187, -326.500000) " x="336.700375" y="241" width="113.299625" height="171" rx="4"></rect>
    </g>
</svg>