<?xml version="1.0" encoding="UTF-8"?>
<svg width="778px" height="570px" viewBox="0 0 778 570" version="1.1" xmlns="http://www.w3.org/2000/svg" xmlns:xlink="http://www.w3.org/1999/xlink">
    <title>sketch-background</title>
    <g id="sketch-background" stroke="none" stroke-width="1" fill="none" fill-rule="evenodd" stroke-linecap="square" stroke-opacity="0.05">
        <g id="Group-6" transform="translate(378.000000, 310.500000) rotate(-360.000000) translate(-378.000000, -310.500000) translate(-0.000000, 35.000000)" stroke="#000000">
            <line x1="103.5" y1="377.5" x2="755.5" y2="377.5" id="Line-8-Copy-16"></line>
            <line x1="76.5" y1="225.5" x2="705.5" y2="225.5" id="Line-8-Copy-17"></line>
            <line x1="103.5" y1="301.5" x2="683.5" y2="301.5" id="Line-8-Copy-18"></line>
            <line x1="0.793621013" y1="453" x2="729.5" y2="452.5" id="Line-8-Copy-9"></line>
            <line x1="103.5" y1="148.5" x2="755.5" y2="148.5" id="Line-8-Copy-19"></line>
            <line x1="76.5" y1="339.5" x2="705.5" y2="339.5" id="Line-8-Copy-20"></line>
            <line x1="0.793621013" y1="491" x2="705.5" y2="490.5" id="Line-8-Copy-10"></line>
            <line x1="128.5" y1="187.5" x2="729.5" y2="187.5" id="Line-8-Copy-21"></line>
            <line x1="49.5" y1="263.5" x2="729.5" y2="263.5" id="Line-8-Copy-22"></line>
            <line x1="76.5" y1="415.5" x2="755.5" y2="415.5" id="Line-8-Copy-11"></line>
            <line x1="76.5" y1="110.5" x2="662.5" y2="110.5" id="Line-8-Copy-23"></line>
            <line x1="103.5" y1="358.5" x2="705.5" y2="358.5" id="Line-8-Copy-24"></line>
            <line x1="0.793621013" y1="510" x2="729.5" y2="509.5" id="Line-8-Copy-12"></line>
            <line x1="0.793621013" y1="530" x2="729.5" y2="529.5" id="Line-8-Copy-34"></line>
            <line x1="103.5" y1="206.5" x2="683.5" y2="206.5" id="Line-8-Copy-25"></line>
            <line x1="76.5" y1="282.5" x2="755.5" y2="282.5" id="Line-8-Copy-26"></line>
            <line x1="0.793621013" y1="434" x2="755.5" y2="433.5" id="Line-8-Copy-13"></line>
            <line x1="49.5" y1="129.5" x2="729.5" y2="129.5" id="Line-8-Copy-27"></line>
            <line x1="103.5" y1="320.5" x2="729.5" y2="320.5" id="Line-8-Copy-28"></line>
            <line x1="0.793621013" y1="472" x2="755.5" y2="471.5" id="Line-8-Copy-14"></line>
            <line x1="76.5" y1="167.5" x2="705.5" y2="167.5" id="Line-8-Copy-29"></line>
            <line x1="49.5" y1="244.5" x2="755.5" y2="244.5" id="Line-8-Copy-30"></line>
            <line x1="76.5" y1="396.5" x2="729.5" y2="396.5" id="Line-8-Copy-15"></line>
            <line x1="103.5" y1="91.5" x2="705.5" y2="91.5" id="Line-8-Copy-31"></line>
            <line x1="76.5" y1="71.5" x2="729.5" y2="71.5" id="Line-8-Copy-32"></line>
            <line x1="76.5" y1="53.5" x2="729.5" y2="53.5" id="Line-8-Copy-38"></line>
            <line x1="184" y1="36.0359057" x2="184.5" y2="531" id="Line-8-Copy-16"></line>
            <line x1="546" y1="36.0359057" x2="546.5" y2="531" id="Line-8-Copy-33"></line>
            <line x1="336" y1="18.0179528" x2="336.5" y2="531" id="Line-8-Copy-17"></line>
            <line x1="260" y1="36.0359057" x2="260.5" y2="531" id="Line-8-Copy-18"></line>
            <line x1="622" y1="36.0359057" x2="622.5" y2="531" id="Line-8-Copy-35"></line>
            <line x1="413" y1="36.0359057" x2="413.5" y2="531" id="Line-8-Copy-19"></line>
            <line x1="222" y1="18.0179528" x2="222.5" y2="531" id="Line-8-Copy-20"></line>
            <line x1="584" y1="18.0179528" x2="584.5" y2="531" id="Line-8-Copy-37"></line>
            <line x1="374" y1="70.7191953" x2="374.5" y2="549" id="Line-8-Copy-21"></line>
            <line x1="298" y1="0" x2="298.5" y2="531" id="Line-8-Copy-22"></line>
            <line x1="146" y1="18.0179528" x2="146.5" y2="531" id="Line-8-Copy-11"></line>
            <line x1="508" y1="18.0179528" x2="508.5" y2="531" id="Line-8-Copy-40"></line>
            <line x1="451" y1="18.0179528" x2="451.5" y2="531" id="Line-8-Copy-23"></line>
            <line x1="203" y1="36.0359057" x2="203.5" y2="531" id="Line-8-Copy-24"></line>
            <line x1="565" y1="36.0359057" x2="565.5" y2="531" id="Line-8-Copy-42"></line>
            <line x1="355" y1="36.0359057" x2="355.5" y2="531" id="Line-8-Copy-25"></line>
            <line x1="279" y1="18.0179528" x2="279.5" y2="531" id="Line-8-Copy-26"></line>
            <line x1="432" y1="4.1666226e-11" x2="432.5" y2="531" id="Line-8-Copy-27"></line>
            <line x1="241" y1="36.0359057" x2="241.5" y2="531" id="Line-8-Copy-28"></line>
            <line x1="603" y1="36.0359057" x2="603.5" y2="531" id="Line-8-Copy-46"></line>
            <line x1="394" y1="18.0179528" x2="394.5" y2="531" id="Line-8-Copy-29"></line>
            <line x1="317" y1="7.16227078e-12" x2="317.5" y2="531" id="Line-8-Copy-30"></line>
            <line x1="165" y1="18.0179528" x2="165.5" y2="531" id="Line-8-Copy-15"></line>
            <line x1="527" y1="18.0179528" x2="527.5" y2="531" id="Line-8-Copy-49"></line>
            <line x1="470" y1="36.0359057" x2="470.5" y2="531" id="Line-8-Copy-31"></line>
            <line x1="490" y1="18.0179528" x2="490.5" y2="531" id="Line-8-Copy-32"></line>
            <line x1="641" y1="18.0179528" x2="641.5" y2="531" id="Line-8-Copy-44"></line>
        </g>
    </g>
</svg>